<?xml version="1.0" encoding="UTF-8" standalone="no"?>
<!-- Created with Inkscape (http://www.inkscape.org/) -->

<svg
   xmlns:dc="http://purl.org/dc/elements/1.1/"
   xmlns:cc="http://creativecommons.org/ns#"
   xmlns:rdf="http://www.w3.org/1999/02/22-rdf-syntax-ns#"
   xmlns:svg="http://www.w3.org/2000/svg"
   xmlns="http://www.w3.org/2000/svg"
   xmlns:sodipodi="http://sodipodi.sourceforge.net/DTD/sodipodi-0.dtd"
   xmlns:inkscape="http://www.inkscape.org/namespaces/inkscape"
   width="1920"
   height="417.20499"
   viewBox="0 0 507.99999 110.38549"
   version="1.1"
   id="svg5236"
   inkscape:version="0.92.4 (5da689c313, 2019-01-14)"
   sodipodi:docname="banner.svg">
  <defs
     id="defs5230" />
  <sodipodi:namedview
     id="base"
     pagecolor="#ffffff"
     bordercolor="#666666"
     borderopacity="1.0"
     inkscape:pageopacity="0.0"
     inkscape:pageshadow="2"
     inkscape:zoom="0.48917426"
     inkscape:cx="920.2423"
     inkscape:cy="240.25206"
     inkscape:document-units="mm"
     inkscape:current-layer="layer1"
     showgrid="false"
     units="px"
     inkscape:snap-bbox="true"
     inkscape:bbox-nodes="true"
     inkscape:snap-page="true"
     showguides="true"
     inkscape:guide-bbox="true"
     inkscape:window-width="1920"
     inkscape:window-height="1171"
     inkscape:window-x="1920"
     inkscape:window-y="0"
     inkscape:window-maximized="1" />
  <metadata
     id="metadata5233">
    <rdf:RDF>
      <cc:Work
         rdf:about="">
        <dc:format>image/svg+xml</dc:format>
        <dc:type
           rdf:resource="http://purl.org/dc/dcmitype/StillImage" />
        <dc:title></dc:title>
      </cc:Work>
    </rdf:RDF>
  </metadata>
  <g
     inkscape:label="Calque 1"
     inkscape:groupmode="layer"
     id="layer1"
     transform="translate(0,-186.61449)">
    <g
       transform="matrix(1.2420542,0,0,1.2420542,-4744.5774,-35.04552)"
       id="g7643">
      <path
         inkscape:connector-curvature="0"
         sodipodi:nodetypes="csccsssssc"
         d="m 4018.2397,215.42479 c 4.9513,-0.83083 9.7988,-2.19251 14.4004,-4.1989 1.4272,-0.62227 2.8222,-1.30209 4.191,-2.02892 m 21.5178,-14.86998 c 1.0122,-0.75718 2.028,-1.50781 3.0501,-2.24632 4.6785,-3.38075 9.5482,-6.54218 14.8107,-8.91312 5.2623,-2.37094 10.9464,-3.93901 16.7178,-4.02194 5.7938,-0.0827 11.545,1.33313 16.8797,3.59486 5.3349,2.26184 10.2802,5.35474 15.0007,8.71544 8.4794,6.03717 16.3759,13.01788 25.4158,18.11388"
         style="display:inline;opacity:1;fill:none;fill-opacity:1;stroke:#ffffff;stroke-width:1.35941303;stroke-linecap:round;stroke-linejoin:round;stroke-miterlimit:4;stroke-dasharray:none;stroke-dashoffset:0;stroke-opacity:1;paint-order:normal"
         id="path7625" />
      <path
         inkscape:connector-curvature="0"
         d="m 3881.9873,205.83547 c 11.215,-2.94008 22.6114,-5.05046 34.1685,-4.95303 17.8382,0.15045 35.095,5.53418 52.4311,9.9268"
         style="display:inline;opacity:1;fill:none;fill-opacity:1;stroke:#ffffff;stroke-width:1.35941303;stroke-linecap:round;stroke-linejoin:round;stroke-miterlimit:4;stroke-dasharray:none;stroke-dashoffset:0;stroke-opacity:1;paint-order:normal"
         id="path7627" />
      <path
         inkscape:connector-curvature="0"
         id="path7629"
         d="m 4086.7536,235.03867 c 2.5318,-0.22397 5.0592,-0.54287 7.5799,-0.96281 16.2482,-2.70716 31.4953,-9.44567 46.8092,-15.51796 15.3127,-6.07194 31.2404,-11.59785 47.7131,-11.67432 13.4852,-0.0623 26.7352,3.54592 39.3992,8.18153"
         style="display:inline;opacity:1;fill:none;fill-opacity:1;stroke:#ffffff;stroke-width:1.35941303;stroke-linecap:round;stroke-linejoin:round;stroke-miterlimit:4;stroke-dasharray:none;stroke-dashoffset:0;stroke-opacity:1;paint-order:normal"
         sodipodi:nodetypes="ccccc" />
      <path
         inkscape:connector-curvature="0"
         id="path7631"
         d="m 4030.3863,226.25321 c 2.7803,1.03951 5.5879,2.00696 8.4177,2.8933"
         style="display:inline;opacity:1;fill:none;fill-opacity:1;stroke:#ffffff;stroke-width:1.35941303;stroke-linecap:round;stroke-linejoin:round;stroke-miterlimit:4;stroke-dasharray:none;stroke-dashoffset:0;stroke-opacity:1;paint-order:normal" />
      <path
         sodipodi:nodetypes="cccccccccc"
         inkscape:connector-curvature="0"
         id="path7633"
         d="m 3820.6332,202.78173 c 1.7301,-0.26557 3.4713,-0.47979 5.225,-0.63628 23.238,-2.07322 45.9648,6.19995 68.3141,12.89451 11.1746,3.34733 22.5216,6.33748 34.1316,7.46841 11.6102,1.13091 23.5566,0.34381 34.5033,-3.68696 4.1797,-1.53886 8.1763,-3.53393 12.3098,-5.1932 4.1334,-1.65962 8.4684,-2.9931 12.9209,-3.11488 4.4741,-0.12223 8.9079,0.98762 13.0829,2.60057 4.1749,1.61283 8.135,3.72468 12.1478,5.70751 0.9975,0.49267 2.0001,0.97764 3.0082,1.45457"
         style="display:inline;opacity:1;fill:none;fill-opacity:1;stroke:#ffffff;stroke-width:1.35941303;stroke-linecap:round;stroke-linejoin:round;stroke-miterlimit:4;stroke-dasharray:none;stroke-dashoffset:0;stroke-opacity:1;paint-order:normal" />
      <path
         sodipodi:nodetypes="cccccc"
         inkscape:connector-curvature="0"
         id="path7635"
         d="m 4004.966,248.91116 c -8.8885,4.05604 -17.9934,7.48273 -27.6595,8.41528 -9.4671,0.91331 -19.0465,-0.64391 -28.1391,-3.43392 -9.0927,-2.7901 -17.7607,-6.79278 -26.3482,-10.88111 -17.1751,-8.17677 -34.9574,-16.94104 -53.9795,-16.85936 -16.0641,0.0691 -31.3598,6.47705 -45.9599,13.17829"
         style="display:inline;opacity:1;fill:none;fill-opacity:1;stroke:#ffffff;stroke-width:1.35941577;stroke-linecap:round;stroke-linejoin:round;stroke-miterlimit:4;stroke-dasharray:none;stroke-dashoffset:0;stroke-opacity:1;paint-order:normal" />
      <path
         sodipodi:nodetypes="cccccccc"
         inkscape:connector-curvature="0"
         id="path7637"
         d="m 4228.0077,245.60917 c -14.8024,7.05207 -29.8847,13.5072 -45.7765,17.39675 -21.1118,5.16714 -44.0701,5.50189 -63.9459,-3.29409 -9.7118,-4.29806 -18.369,-10.60712 -27.3922,-16.20711 -9.0243,-5.59989 -18.749,-10.60832 -29.2986,-11.83201 -7.3749,-0.85542 -14.8787,0.18747 -22.0137,2.23997 -7.1352,2.05261 -13.943,5.09713 -20.6371,8.30807 -1.0616,0.50921 -2.1234,1.02364 -3.1865,1.53988"
         style="display:inline;opacity:1;fill:none;fill-opacity:1;stroke:#ffffff;stroke-width:1.35941577;stroke-linecap:round;stroke-linejoin:round;stroke-miterlimit:4;stroke-dasharray:none;stroke-dashoffset:0;stroke-opacity:1;paint-order:normal" />
      <path
         id="path7639"
         d="m 4046.2793,231.73687 v -5.66435 h -1.3594 l 1.9259,-3.17185 h 18.1255 l 1.9259,3.17185 h -1.3595 v 5.66435 z"
         style="display:inline;opacity:1;fill:#ffffff;fill-opacity:1;stroke:#ffffff;stroke-width:0.45313856;stroke-linecap:square;stroke-linejoin:round;stroke-miterlimit:4;stroke-dasharray:none;stroke-dashoffset:0;stroke-opacity:1"
         inkscape:connector-curvature="0" />
      <path
         d="m 3995.7923,189.92657 c 0,0.40284 0.023,0.71619 0.1121,0.96236 1.1863,0.0668 1.5444,0.44769 1.5444,1.94713 v 9.44442 c 0,1.49955 -0.3581,1.87985 -1.5444,1.94703 -0.089,0.24639 -0.1121,0.55962 -0.1121,0.96246 0.5817,-0.0442 1.9917,-0.0668 3.0435,-0.0668 1.0519,0 2.1261,0.0238 2.82,0.0668 0,-0.40284 -0.021,-0.71607 -0.1121,-0.96246 -1.4099,-0.0668 -1.9924,-0.44781 -1.9924,-2.39484 v -3.40194 h 1.5446 c 1.8349,0 2.417,0.44805 2.5288,1.99222 0.3357,0.0895 0.6271,0.11216 1.0299,0.11216 -0.046,-0.76094 -0.046,-1.81244 -0.046,-2.59569 0,-0.78348 0,-1.67854 0.046,-2.43936 -0.4028,0 -0.6939,0.0442 -1.0743,0.15622 -0.024,1.45469 -0.6495,1.81323 -2.4844,1.81323 h -1.5446 v -6.58025 h 1.9924 c 2.887,0 3.5584,1.45469 3.6705,2.8422 0.4029,0 0.7607,-0.0668 1.0068,-0.26871 -0.2239,-0.96235 -0.3806,-2.52863 -0.47,-3.53585 -0.7386,0.0226 -2.7305,0.0668 -6.2218,0.0668 -1.0742,0 -2.7526,-0.0226 -3.7373,-0.0668 z m 15.7106,4.74413 c -2.8645,0 -4.6323,2.46213 -4.6323,5.32665 0,2.93169 1.5663,5.32687 4.7441,5.32687 1.6338,0 2.9545,-0.51499 3.9838,-1.85776 -0.044,-0.24605 -0.2905,-0.55985 -0.5368,-0.69421 v 0 c -0.7386,0.85043 -1.7456,1.29791 -2.7303,1.29791 -2.3499,0 -3.1106,-1.90239 -3.245,-3.89416 2.3275,-0.11216 5.3264,-0.11216 6.2663,-0.11216 0.1567,-0.20142 0.2682,-0.44781 0.3354,-0.76093 -0.179,-2.55151 -1.2757,-4.63312 -4.1852,-4.63312 z m 39.7918,0 c -2.8646,0 -4.6323,2.46213 -4.6323,5.32665 0,2.93169 1.5661,5.32687 4.7441,5.32687 1.6339,0 2.9541,-0.51499 3.9838,-1.85776 -0.044,-0.24605 -0.2908,-0.55985 -0.5369,-0.69421 v 0 c -0.7384,0.85043 -1.7456,1.29791 -2.7303,1.29791 -2.3498,0 -3.1105,-1.90239 -3.2447,-3.89416 2.3272,-0.11216 5.3261,-0.11216 6.266,-0.11216 0.1568,-0.20142 0.2683,-0.44781 0.3354,-0.76093 -0.1789,-2.55151 -1.2756,-4.63312 -4.1851,-4.63312 z m -30.7053,0 c -0.694,0.3581 -2.0811,0.69342 -2.9986,0.76048 -0.1568,0.24617 -0.2014,0.49256 -0.2014,0.82834 1.477,0.0453 1.6784,0.53697 1.6784,1.58882 v 4.43147 c 0,1.49955 -0.3585,1.87995 -1.5445,1.94714 -0.089,0.24627 -0.1122,0.5595 -0.1122,0.96235 0.5822,-0.0442 1.9022,-0.0668 2.9544,-0.0668 1.0517,0 2.126,0.0238 2.8198,0.0668 0,-0.40285 -0.024,-0.71608 -0.1122,-0.96235 -1.4099,-0.0668 -1.9917,-0.44782 -1.9917,-2.39496 v -2.14844 c 0,-1.7456 1.1189,-3.17752 1.902,-3.17752 0.5818,0 1.0298,0.31289 1.0971,1.74515 0.4925,0 1.0071,-0.11215 1.2757,-0.20142 0,-0.78325 0.044,-1.90228 0.1564,-2.64078 -0.47,-0.35798 -0.9399,-0.53674 -1.5439,-0.53686 v 0 c -1.1636,2.3e-4 -2.0586,0.78314 -2.7076,1.81244 -0.1792,0.2686 -0.2903,0.64912 -0.4693,1.16378 0.134,-0.67144 0.2901,-1.34254 0.2901,-2.19296 0,-0.64901 -0.2236,-0.89507 -0.4921,-0.98468 z m 9.2651,0 c -0.5816,0.33578 -2.1256,0.71573 -2.8866,0.76048 -0.1567,0.24617 -0.2015,0.49256 -0.2015,0.82834 1.4771,0.0453 1.6786,0.53697 1.6786,1.58882 v 4.43147 c 0,1.49955 -0.3583,1.87995 -1.5446,1.94714 -0.09,0.24627 -0.1121,0.5595 -0.1121,0.96235 0.7163,-0.0442 1.8806,-0.0668 2.6636,-0.0668 0.7836,0 1.9023,0.0238 2.6633,0.0668 0,-0.40285 -0.022,-0.69387 -0.1122,-0.96235 -1.1863,-0.0668 -1.5667,-0.44759 -1.5667,-1.94714 v -2.50665 c 0,-2.73028 1.3425,-3.73727 2.4838,-3.73727 1.2085,0 2.0592,0.62669 2.0592,2.73051 v 3.51341 c 0,1.49955 -0.3582,1.87995 -1.5445,1.94714 -0.089,0.24627 -0.1121,0.5595 -0.1121,0.96235 0.8056,-0.0442 1.7902,-0.0668 2.663,-0.0668 0.8729,0 1.9022,0.0238 2.6632,0.0668 0,-0.40285 -0.024,-0.69387 -0.1122,-0.96235 -1.1413,-0.0668 -1.5673,-0.40262 -1.5673,-1.94714 v -2.39484 c 0,-2.73027 1.3431,-3.73726 2.4846,-3.73726 1.2085,0 2.0588,0.62668 2.0588,2.7305 v 3.4016 c 0,1.49955 -0.3582,1.87995 -1.5442,1.94714 -0.089,0.24627 -0.1121,0.5595 -0.1121,0.96235 0.7384,-0.0442 1.7678,-0.0668 2.6631,-0.0668 0.895,0 1.7678,0.0238 2.4392,0.0668 0,-0.40285 -0.022,-0.69387 -0.1121,-0.96235 -0.9167,-0.0668 -1.3411,-0.40352 -1.3411,-1.94714 v -3.84976 c 0,-2.73016 -1.4773,-3.64753 -3.1561,-3.64753 -1.5665,0 -2.7081,0.91737 -3.2004,1.61113 -0.1567,0.20142 -0.2684,0.40318 -0.3806,0.71652 0,-0.20142 -0.044,-0.40306 -0.089,-0.55963 -0.4701,-1.36519 -1.611,-1.87984 -2.8643,-1.87984 -1.5666,0 -2.7305,0.91726 -3.2006,1.61114 -0.067,0.0668 -0.1561,0.24662 -0.3574,0.71652 0.067,-0.67133 0.088,-1.05207 0.088,-1.43248 0,-0.55951 -0.2236,-0.80557 -0.4922,-0.89518 z m -18.553,1.07428 c 1.2981,0 2.0591,1.34276 2.0591,3.3121 h -4.2969 c 0.1343,-2.59592 1.2085,-3.3121 2.2378,-3.3121 z m 39.7918,0 c 1.2981,0 2.0588,1.34276 2.0588,3.3121 h -4.2969 c 0.1343,-2.59592 1.2087,-3.3121 2.2381,-3.3121 z m 12.8271,0.92441 c -0.283,0.20039 -1.2257,0.40034 -1.5793,0.40034 -0.083,0.1296 -0.1065,0.25942 -0.1065,0.43626 0.8017,0 0.8838,0.28299 0.8838,0.83683 v 1.43849 c -0.3183,-0.10649 -0.589,-0.16494 -0.9779,-0.16494 -1.7685,0 -2.9359,1.34378 -2.9359,2.99434 0,1.8155 0.8251,2.61733 2.2045,2.61733 0.7901,0 1.403,-0.51862 1.6153,-0.87229 0.059,-0.094 0.1531,-0.23586 0.2708,-0.49517 -0.059,0.30632 -0.093,0.44781 -0.093,0.68379 0,0.54218 0.1292,0.61287 0.2944,0.68367 0.3653,-0.20052 0.9552,-0.34178 1.3443,-0.36546 0.059,-0.16483 0.07,-0.37735 0.07,-0.54252 -0.6484,0 -0.7314,-0.24718 -0.7314,-0.80137 v 0 -6.37804 c 0,-0.29465 -0.1178,-0.42414 -0.2593,-0.47126 z m -83.5398,0.4478 c 0,0.18863 0.012,0.37713 0.059,0.50696 0.6249,0.0351 0.8131,0.23586 0.8131,1.02568 v 4.84541 c 0,0.91964 -0.2004,1.11982 -0.8254,1.15493 -0.047,0.12971 -0.059,0.29488 -0.059,0.50707 0.5895,-0.0238 2.1811,-0.0352 3.0535,-0.0352 0.8725,0 1.8274,0.0124 2.2872,0.0238 0.07,-0.54251 0.1886,-1.21452 0.3654,-1.75693 -0.1415,-0.14149 -0.2829,-0.21196 -0.5187,-0.28275 -0.3891,1.09647 -0.7544,1.48528 -2.063,1.48528 v 0 h -0.07 c -0.8841,0 -1.0613,-0.22397 -1.0613,-1.09649 v -4.8104 c 0,-0.82517 0.1887,-1.02535 0.8136,-1.06069 0.048,-0.12983 0.059,-0.29466 0.059,-0.50695 -0.4715,0.0238 -0.9193,0.0352 -1.426,0.0352 -0.3421,0 -0.967,-0.0124 -1.4268,-0.0352 z m 8.8532,2.49918 c -0.6012,0 -1.3673,0.20029 -2.0038,0.53028 0.07,0.35368 0.094,0.89587 0.059,1.28499 0.1181,0.059 0.4363,0.0827 0.6129,0.0827 0.024,-0.49539 0.2482,-1.36768 1.0381,-1.36768 0.2947,0 0.542,0.11782 0.7306,0.35368 0.2003,0.24763 0.2476,0.49493 0.2476,1.46181 -0.9666,0.14116 -3.0178,0.45949 -3.0178,1.99201 0,0.77815 0.5305,1.24987 1.5208,1.24987 0.5777,0 0.9781,-0.16517 1.2494,-0.40103 0.1886,-0.16518 0.3302,-0.37678 0.4127,-0.5773 -0.011,0.10648 -0.011,0.22362 -0.011,0.30632 0,0.44782 0.1065,0.62465 0.2827,0.69545 0.3655,-0.20051 0.896,-0.34177 1.285,-0.36546 0.059,-0.16482 0.07,-0.37667 0.07,-0.54183 -0.6366,-0.0352 -0.7311,-0.24764 -0.7311,-0.91987 v 0 -1.29723 c 0,-1.04912 -0.094,-1.63866 -0.4953,-2.03946 -0.2594,-0.25919 -0.672,-0.44782 -1.2498,-0.44782 z m 77.9171,0 c -0.3658,0.18862 -1.0143,0.36569 -1.4978,0.4008 -0.07,0.14149 -0.083,0.25954 -0.083,0.43615 0.7193,0.0238 0.7781,0.2832 0.7781,0.83706 v 1.78049 c 0,1.56786 0.625,2.09803 1.686,2.09803 0.6366,0 1.0606,-0.1885 1.4735,-0.6012 0.1647,-0.16517 0.2949,-0.33 0.3776,-0.5185 -0.035,0.23552 -0.035,0.38902 -0.035,0.49517 0,0.54218 0.1295,0.61287 0.2947,0.68367 0.3653,-0.20052 0.955,-0.34178 1.344,-0.36546 0.059,-0.16483 0.07,-0.37735 0.07,-0.54252 -0.6487,0 -0.7308,-0.24718 -0.7308,-0.80137 v -3.3837 c 0,-0.342 -0.1181,-0.47149 -0.2593,-0.51862 -0.3536,0.16494 -0.9903,0.30632 -1.6036,0.34178 -0.083,0.14149 -0.083,0.2592 -0.083,0.43603 0.7781,0.0238 0.8839,0.28333 0.8839,0.83718 v 1.20251 c 0,1.36769 -0.6012,2.01602 -1.3794,2.01602 -0.7307,0 -0.978,-0.57731 -0.978,-1.63832 v -2.67658 c 0,-0.342 -0.118,-0.47149 -0.2593,-0.51862 z m -5.0695,0.54252 c 0.4603,0 0.7665,0.1646 1.0375,0.41214 v 1.66267 c 0,1.65055 -0.7311,2.25153 -1.4265,2.25153 -0.5188,0 -1.3209,-0.51884 -1.3209,-2.0279 0,-1.87452 1.0617,-2.29844 1.7099,-2.29844 z m -72.1637,2.28665 v 0.4485 c 0,1.17884 -0.6486,1.66199 -1.1674,1.66199 -0.3773,0 -0.7072,-0.25964 -0.7072,-0.83716 0,-1.02569 1.0729,-1.16718 1.8746,-1.27333 z m -9.5558,16.09899 c 0,0.40285 0.023,0.71597 0.1119,0.96236 1.1862,0.0668 1.5443,0.44758 1.5443,1.94713 v 9.44454 c 0,1.49921 -0.3581,1.87985 -1.5443,1.94703 -0.09,0.24605 -0.1119,0.55963 -0.1119,0.96246 0.761,-0.0442 1.8353,-0.0668 2.7082,-0.0668 0.8728,0 1.8123,0.0215 2.7074,0.0668 0,-0.40283 -0.023,-0.71641 -0.1121,-0.96246 -1.1863,-0.0668 -1.5444,-0.44782 -1.5444,-1.94703 v -4.29699 c 1.701,-0.13425 5.1251,-0.13459 6.826,-0.13459 v 4.43158 c 0,1.49921 -0.3583,1.87985 -1.5444,1.94703 -0.09,0.24605 -0.1121,0.55963 -0.1121,0.96246 0.7609,-0.0442 1.8353,-0.0668 2.7082,-0.0668 0.8729,0 1.8129,0.0215 2.708,0.0668 0,-0.40283 -0.023,-0.71641 -0.1121,-0.96246 -1.186,-0.0668 -1.5443,-0.44782 -1.5443,-1.94703 v -9.44454 c 0,-1.49955 0.3583,-1.87995 1.5443,-1.94713 0.089,-0.24639 0.1121,-0.55951 0.1121,-0.96236 -0.8951,0.0453 -1.7457,0.0668 -2.708,0.0668 -0.9624,0 -1.8802,-0.0238 -2.7082,-0.0668 0,0.40285 0.023,0.71597 0.1121,0.96236 1.1861,0.0668 1.5444,0.44758 1.5444,1.94713 v 4.05118 h -6.826 v -4.05118 c 0,-1.49955 0.3581,-1.87995 1.5444,-1.94713 0.09,-0.24639 0.1121,-0.55951 0.1121,-0.96236 -0.8951,0.0453 -1.7451,0.0668 -2.7074,0.0668 -0.9624,0 -1.8802,-0.0238 -2.7082,-0.0668 z m 43.0805,1.32056 c -0.4475,0.38064 -1.0741,0.7385 -1.656,0.89507 v 2.95412 h -1.4103 c -0.1566,0.3582 -0.2014,0.60426 -0.2014,0.98456 0.7386,0.0453 1.1643,0.13435 1.6117,0.29114 v 6.06469 c 0,2.03675 0.8275,2.8874 2.5957,2.8874 0.94,0 2.0367,-0.44759 2.5291,-1.00688 -0.024,-0.24638 -0.1564,-0.53742 -0.3356,-0.73884 -0.4251,0.35821 -0.8502,0.53742 -1.4768,0.53742 -0.8057,0 -1.2978,-0.64923 -1.2978,-2.14844 v -5.59535 c 0.7381,-0.15679 1.6332,-0.24617 2.7073,-0.29114 0.1344,-0.33566 0.2015,-0.69353 0.2015,-0.98456 h -2.9088 v -2.6853 c 0,-0.93992 -0.067,-1.02964 -0.3586,-1.16389 z m -21.9325,3.42415 c -1.1411,0 -2.596,0.38041 -3.8045,1.00675 0.1343,0.67178 0.1793,1.70109 0.1121,2.43959 0.2237,0.11216 0.8276,0.15678 1.1632,0.15678 0.046,-0.93969 0.4706,-2.59637 1.97,-2.59637 0.5595,0 1.0292,0.22397 1.3874,0.67178 0.3804,0.46991 0.4704,0.93958 0.4704,2.77458 -1.8354,0.26893 -5.7297,0.87319 -5.7297,3.78267 0,1.47702 1.0073,2.37264 2.8872,2.37264 1.0967,0 1.8575,-0.31357 2.3721,-0.76105 0.3582,-0.31346 0.6268,-0.71629 0.7832,-1.0967 -0.024,0.20142 -0.024,0.4247 -0.024,0.58148 0,0.85033 0.2018,1.18632 0.5374,1.32068 0.6939,-0.38041 1.7011,-0.64901 2.4396,-0.69365 0.1122,-0.31345 0.1339,-0.71663 0.1339,-1.02986 -1.2085,-0.0668 -1.3874,-0.47003 -1.3874,-1.74561 v -2.46167 c 0,-1.99212 -0.1792,-3.11068 -0.94,-3.87139 -0.4924,-0.49245 -1.2755,-0.85065 -2.3723,-0.85065 z m 8.9524,0 c -0.6939,0.3582 -1.9246,0.69386 -2.8424,0.76104 -0.1343,0.2686 -0.1567,0.49211 -0.1567,0.82789 1.3652,0.0453 1.477,0.53674 1.477,1.58881 v 3.37951 c 0,2.97666 1.1861,3.98377 3.2002,3.98377 1.2086,0 2.0144,-0.35821 2.7978,-1.14168 0.3136,-0.31323 0.5592,-0.62647 0.716,-0.98467 -0.067,0.44781 -0.067,0.73884 -0.067,0.94026 0,1.02931 0.2464,1.16354 0.5596,1.2979 0.6939,-0.38041 1.8128,-0.64901 2.5513,-0.69365 0.1122,-0.31345 0.134,-0.71663 0.134,-1.02986 -1.2308,0 -1.3871,-0.46968 -1.3871,-1.52141 v 0 -6.42325 c 0,-0.64901 -0.2241,-0.89505 -0.4925,-0.98466 -0.6715,0.31323 -1.88,0.58205 -3.0435,0.64923 -0.1568,0.2686 -0.1571,0.49211 -0.1571,0.82789 1.4771,0.0442 1.6791,0.53674 1.6791,1.58881 v 2.28314 c 0,2.59592 -1.1414,3.82664 -2.6185,3.82664 -1.3878,0 -1.8576,-1.09671 -1.8576,-3.1109 v -5.08015 c 0,-0.64901 -0.224,-0.89505 -0.4923,-0.98466 z m -7.6543,5.37116 v 0.85066 c 0,2.23816 -1.2307,3.15531 -2.2153,3.15531 -0.7161,0 -1.3432,-0.49222 -1.3432,-1.58892 0,-1.9467 2.0365,-2.21563 3.5585,-2.41705 z m 6.3204,18.50244 c 0,0.2686 0.024,0.67144 0.1122,0.96246 1.231,0 1.6341,0.53743 1.4999,2.12636 l -0.7164,7.96747 c -0.2464,2.70807 -0.6265,3.13311 -1.8124,3.24492 -0.089,0.31346 -0.1121,0.76105 -0.1121,0.96247 0.6042,-0.0453 1.5889,-0.0668 2.2381,-0.0668 0.6488,0 1.6787,0.0238 2.3948,0.0668 0,-0.20142 -0.024,-0.64901 -0.1121,-0.96247 -1.3204,-0.11215 -1.701,-0.6711 -1.4549,-3.04351 l 0.7166,-7.18433 5.2145,11.32421 c 0.3579,0 0.6485,-0.0442 0.9171,-0.15611 l 4.6331,-11.19029 0.8057,7.67655 c 0.2013,1.96957 0.067,2.43924 -1.3653,2.57348 -0.09,0.29103 -0.1341,0.69387 -0.1341,0.96247 0.7607,-0.0453 1.9246,-0.0668 2.7303,-0.0668 0.8057,0 1.9915,0.0238 2.6853,0.0668 0,-0.2908 -0.022,-0.67144 -0.1122,-0.98467 -1.0517,-0.0895 -1.4096,-0.62647 -1.6332,-2.84208 l -0.8063,-8.21421 c -0.1789,-1.79023 0.4703,-2.26026 1.522,-2.26026 0.09,-0.33566 0.1123,-0.64923 0.1123,-0.96246 -0.6044,0.0453 -1.1187,0.0679 -1.7005,0.0679 -0.582,0 -1.2309,-0.0238 -1.746,-0.0679 l -4.8787,12.37628 -5.5947,-12.37628 c -0.5818,0.0453 -1.1417,0.0679 -1.7013,0.0679 -0.5594,0 -1.2529,-0.0238 -1.7006,-0.0679 z m 47.5573,1.32102 c -0.4474,0.38029 -1.0742,0.73816 -1.656,0.89495 v 2.95389 h -1.4096 c -0.1568,0.3582 -0.2021,0.60483 -0.2021,0.98546 0.7386,0.0453 1.1642,0.13368 1.6117,0.29013 v 6.06576 c 0,2.0364 0.8279,2.88637 2.5957,2.88637 0.9399,0 2.0366,-0.44713 2.5291,-1.00676 -0.024,-0.24605 -0.1565,-0.53743 -0.3354,-0.73884 -0.4254,0.35821 -0.8503,0.53742 -1.4771,0.53742 -0.8057,0 -1.2978,-0.6489 -1.2978,-2.14844 v -5.59551 c 0.7386,-0.15645 1.6332,-0.24549 2.7075,-0.29013 0.1342,-0.336 0.2013,-0.69443 0.2013,-0.98546 h -2.9088 v -2.6853 c 0,-0.93969 -0.067,-1.0293 -0.3585,-1.16354 z m -23.029,3.42379 c -2.9763,0 -5.058,2.28303 -5.058,5.32692 0,3.22272 1.9921,5.32585 5.058,5.32585 3.0213,0 5.058,-2.25991 5.058,-5.32585 0,-3.17813 -1.88,-5.32692 -5.058,-5.32692 z m 9.9593,0 c -0.6939,0.35821 -2.0815,0.69422 -2.9991,0.76128 -0.1568,0.24617 -0.2015,0.49188 -0.2015,0.82755 1.477,0.0453 1.6785,0.53742 1.6785,1.58949 v 4.43106 c 0,1.49955 -0.3807,1.94702 -1.5443,1.94702 -0.089,0.2464 -0.1121,0.55963 -0.1121,0.96247 0.6492,-0.0453 1.7457,-0.0668 2.6632,-0.0668 0.9174,0 2.0369,0.0453 2.6637,0.0668 0,-0.40284 -0.024,-0.69387 -0.1122,-0.96247 -1.1639,0 -1.5442,-0.44747 -1.5442,-1.94702 v -2.39496 c 0,-2.7302 1.365,-3.73729 2.5288,-3.73729 1.2085,0 2.0811,0.62669 2.0811,2.73049 v 3.40176 c 0,1.49955 -0.4695,1.94702 -1.5437,1.94702 -0.09,0.2464 -0.1122,0.55963 -0.1122,0.96247 0.6939,-0.0215 1.7454,-0.0668 2.6631,-0.0668 0.9176,0 1.7904,0.0238 2.4396,0.0668 0,-0.40284 -0.021,-0.69387 -0.1121,-0.96247 -0.8947,0 -1.3195,-0.40318 -1.3195,-1.94702 v -3.84923 c 0,-2.73027 -1.4996,-3.64811 -3.2005,-3.64811 -1.5888,0 -2.7524,0.91784 -3.2449,1.61136 -0.1788,0.2464 -0.2463,0.42539 -0.336,0.58218 0.1343,-0.51499 0.1572,-0.96281 0.1572,-1.32068 0,-0.64923 -0.224,-0.89529 -0.4925,-0.9849 z m -10.1834,1.07428 c 1.6563,0 3.0443,1.7456 3.0443,4.52056 0,2.34986 -0.8504,3.98377 -2.641,3.98399 -1.8128,0 -2.9768,-1.70062 -2.9768,-4.72192 0,-2.2381 0.8502,-3.78263 2.5735,-3.78263 z"
         style="font-size:10.40690041px;line-height:23.54789925px;font-family:Vollkorn;-inkscape-font-specification:Vollkorn;letter-spacing:0px;word-spacing:0px;display:inline;fill:#ffffff;fill-opacity:1;stroke:none;stroke-width:9.06274891;stroke-miterlimit:4;stroke-dasharray:none;paint-order:stroke fill markers"
         id="path7641"
         inkscape:connector-curvature="0" />
    </g>
  </g>
</svg>
