<?xml version="1.0" encoding="UTF-8" standalone="no"?>
<!-- Created with Inkscape (http://www.inkscape.org/) -->

<svg
   xmlns:dc="http://purl.org/dc/elements/1.1/"
   xmlns:cc="http://creativecommons.org/ns#"
   xmlns:rdf="http://www.w3.org/1999/02/22-rdf-syntax-ns#"
   xmlns:svg="http://www.w3.org/2000/svg"
   xmlns="http://www.w3.org/2000/svg"
   xmlns:sodipodi="http://sodipodi.sourceforge.net/DTD/sodipodi-0.dtd"
   xmlns:inkscape="http://www.inkscape.org/namespaces/inkscape"
   width="99.995003mm"
   height="72.559998mm"
   viewBox="0 0 99.995003 72.559998"
   version="1.1"
   id="svg962"
   inkscape:version="0.92.4 (5da689c313, 2019-01-14)"
   sodipodi:docname="logo2.svg">
  <defs
     id="defs956">
    <clipPath
       clipPathUnits="userSpaceOnUse"
       id="clipPath6459">
      <rect
         style="opacity:1;vector-effect:none;fill:#dc8add;fill-opacity:1;stroke:none;stroke-width:1.20000005;stroke-linecap:square;stroke-linejoin:miter;stroke-miterlimit:4;stroke-dasharray:none;stroke-dashoffset:0;stroke-opacity:1;paint-order:normal"
         id="rect6461"
         width="99.999802"
         height="99.999802"
         x="0"
         y="0" />
    </clipPath>
  </defs>
  <sodipodi:namedview
     id="base"
     pagecolor="#ffffff"
     bordercolor="#666666"
     borderopacity="1.0"
     inkscape:pageopacity="0.0"
     inkscape:pageshadow="2"
     inkscape:zoom="1.5933022"
     inkscape:cx="146.09176"
     inkscape:cy="146.86554"
     inkscape:document-units="mm"
     inkscape:current-layer="layer1"
     showgrid="false"
     inkscape:window-width="1920"
     inkscape:window-height="1051"
     inkscape:window-x="0"
     inkscape:window-y="0"
     inkscape:window-maximized="1"
     inkscape:snap-bbox="true"
     inkscape:bbox-nodes="true"
     inkscape:snap-page="true"
     showguides="true"
     inkscape:guide-bbox="true"
     inkscape:lockguides="true" />
  <metadata
     id="metadata959">
    <rdf:RDF>
      <cc:Work
         rdf:about="">
        <dc:format>image/svg+xml</dc:format>
        <dc:type
           rdf:resource="http://purl.org/dc/dcmitype/StillImage" />
        <dc:title></dc:title>
      </cc:Work>
    </rdf:RDF>
  </metadata>
  <g
     inkscape:label="Calque 1"
     inkscape:groupmode="layer"
     id="layer1"
     transform="translate(0,-224.44)">
    <g
       id="g913"
       transform="translate(-0.00478431,15.787773)">
      <g
         id="g11673"
         style="display:inline"
         transform="translate(-120,77.003002)">
        <path
           id="path1135-9"
           d="m 188.1,177 v -5 h -1.2 l 1.7,-2.8 h 16 l 1.7,2.8 h -1.2 v 5 z"
           style="display:inline;fill:#ffffff;fill-opacity:1;stroke:#ffffff;stroke-width:0.40000001;stroke-linecap:square;stroke-linejoin:round;stroke-miterlimit:4;stroke-dasharray:none;stroke-dashoffset:0;stroke-opacity:1"
           inkscape:connector-curvature="0" />
        <path
           d="m 143.533,140.093 c 0,0.355 0.02,0.632 0.1,0.849 1.048,0.06 1.364,0.395 1.364,1.719 v 8.337 c 0,1.324 -0.316,1.659 -1.364,1.719 -0.08,0.217 -0.1,0.494 -0.1,0.849 0.514,-0.04 1.759,-0.06 2.687,-0.06 0.929,0 1.877,0.02 2.489,0.06 0,-0.355 -0.02,-0.632 -0.1,-0.849 -1.244,-0.06 -1.758,-0.396 -1.758,-2.114 V 147.6 h 1.363 c 1.62,0 2.134,0.395 2.232,1.758 0.297,0.08 0.554,0.1 0.91,0.1 -0.04,-0.672 -0.04,-1.6 -0.04,-2.291 0,-0.692 0,-1.482 0.04,-2.153 -0.356,0 -0.613,0.04 -0.949,0.137 -0.02,1.285 -0.573,1.601 -2.193,1.601 h -1.363 v -5.809 h 1.758 c 2.549,0 3.142,1.285 3.241,2.509 0.355,0 0.671,-0.06 0.888,-0.237 -0.197,-0.849 -0.336,-2.232 -0.415,-3.121 -0.652,0.02 -2.41,0.06 -5.492,0.06 -0.948,0 -2.43,-0.02 -3.299,-0.06 z m 13.869,4.187 c -2.529,0 -4.089,2.174 -4.089,4.702 0,2.588 1.382,4.703 4.187,4.703 1.443,0 2.608,-0.455 3.517,-1.64 -0.04,-0.217 -0.256,-0.494 -0.474,-0.613 v 0 c -0.652,0.751 -1.541,1.146 -2.41,1.146 -2.074,0 -2.746,-1.68 -2.864,-3.438 2.054,-0.1 4.701,-0.1 5.531,-0.1 0.138,-0.178 0.237,-0.395 0.296,-0.672 -0.158,-2.252 -1.126,-4.089 -3.694,-4.089 z m 35.125,0 c -2.528,0 -4.089,2.174 -4.089,4.702 0,2.588 1.383,4.703 4.188,4.703 1.442,0 2.608,-0.455 3.517,-1.64 -0.04,-0.217 -0.257,-0.494 -0.474,-0.613 v 0 c -0.652,0.751 -1.541,1.146 -2.41,1.146 -2.075,0 -2.746,-1.68 -2.865,-3.438 2.055,-0.1 4.702,-0.1 5.532,-0.1 0.138,-0.178 0.236,-0.395 0.296,-0.672 -0.158,-2.252 -1.126,-4.089 -3.695,-4.089 z m -27.104,0 c -0.613,0.317 -1.837,0.613 -2.647,0.672 -0.139,0.217 -0.178,0.435 -0.178,0.731 1.304,0.04 1.482,0.474 1.482,1.402 v 3.912 c 0,1.324 -0.317,1.66 -1.364,1.719 -0.08,0.217 -0.1,0.494 -0.1,0.85 0.514,-0.04 1.679,-0.06 2.608,-0.06 0.928,0 1.877,0.02 2.489,0.06 0,-0.356 -0.02,-0.633 -0.1,-0.85 -1.244,-0.06 -1.758,-0.395 -1.758,-2.114 v -1.897 c 0,-1.54 0.988,-2.804 1.679,-2.804 0.514,0 0.909,0.276 0.968,1.54 0.435,0 0.889,-0.1 1.126,-0.178 0,-0.691 0.04,-1.679 0.139,-2.331 -0.415,-0.316 -0.83,-0.474 -1.363,-0.474 v 0 c -1.027,0 -1.817,0.692 -2.39,1.6 -0.159,0.237 -0.257,0.573 -0.415,1.027 0.119,-0.592 0.256,-1.185 0.256,-1.935 0,-0.573 -0.197,-0.79 -0.434,-0.87 z m 8.178,0 c -0.513,0.297 -1.876,0.632 -2.548,0.672 -0.138,0.217 -0.178,0.435 -0.178,0.731 1.304,0.04 1.482,0.474 1.482,1.402 v 3.912 c 0,1.324 -0.316,1.66 -1.363,1.719 -0.08,0.217 -0.1,0.494 -0.1,0.85 0.632,-0.04 1.66,-0.06 2.351,-0.06 0.692,0 1.679,0.02 2.351,0.06 0,-0.356 -0.02,-0.613 -0.1,-0.85 -1.047,-0.06 -1.383,-0.395 -1.383,-1.719 v -2.212 c 0,-2.411 1.185,-3.299 2.192,-3.299 1.067,0 1.818,0.553 1.818,2.41 v 3.101 c 0,1.324 -0.316,1.66 -1.363,1.719 -0.08,0.217 -0.1,0.494 -0.1,0.85 0.711,-0.04 1.58,-0.06 2.351,-0.06 0.77,0 1.679,0.02 2.35,0.06 0,-0.356 -0.02,-0.613 -0.1,-0.85 -1.007,-0.06 -1.383,-0.355 -1.383,-1.719 v -2.114 c 0,-2.41 1.185,-3.299 2.193,-3.299 1.067,0 1.817,0.553 1.817,2.411 v 3.002 c 0,1.324 -0.316,1.66 -1.363,1.719 -0.08,0.217 -0.1,0.494 -0.1,0.85 0.652,-0.04 1.561,-0.06 2.351,-0.06 0.79,0 1.561,0.02 2.153,0.06 0,-0.356 -0.02,-0.613 -0.1,-0.85 -0.809,-0.06 -1.183,-0.356 -1.183,-1.719 v -3.398 c 0,-2.41 -1.305,-3.22 -2.786,-3.22 -1.383,0 -2.391,0.81 -2.825,1.422 -0.139,0.178 -0.237,0.356 -0.336,0.633 0,-0.178 -0.04,-0.356 -0.08,-0.494 -0.415,-1.205 -1.423,-1.66 -2.529,-1.66 -1.383,0 -2.41,0.81 -2.825,1.423 -0.06,0.06 -0.138,0.217 -0.316,0.632 0.06,-0.592 0.08,-0.929 0.08,-1.264 0,-0.494 -0.197,-0.711 -0.434,-0.791 z m -16.377,0.949 c 1.146,0 1.818,1.185 1.818,2.923 h -3.793 c 0.118,-2.291 1.066,-2.923 1.975,-2.923 z m 35.125,0 c 1.146,0 1.818,1.185 1.818,2.923 h -3.793 c 0.118,-2.291 1.067,-2.923 1.975,-2.923 z m 11.323,0.816 c -0.249,0.177 -1.082,0.353 -1.394,0.353 -0.07,0.115 -0.09,0.229 -0.09,0.385 0.708,0 0.78,0.25 0.78,0.739 v 1.27 c -0.281,-0.09 -0.519,-0.146 -0.863,-0.146 -1.561,0 -2.591,1.186 -2.591,2.643 0,1.603 0.728,2.311 1.946,2.311 0.697,0 1.238,-0.458 1.425,-0.77 0.05,-0.08 0.136,-0.208 0.24,-0.437 -0.05,0.27 -0.08,0.395 -0.08,0.603 0,0.479 0.114,0.541 0.259,0.604 0.323,-0.177 0.844,-0.302 1.187,-0.323 0.05,-0.145 0.06,-0.333 0.06,-0.479 -0.572,0 -0.646,-0.218 -0.646,-0.707 v 0 -5.63 c 0,-0.26 -0.104,-0.375 -0.228,-0.416 z m -73.743,0.395 c 0,0.167 0.01,0.333 0.05,0.448 0.552,0.03 0.718,0.208 0.718,0.905 v 4.277 c 0,0.812 -0.177,0.989 -0.729,1.02 -0.04,0.114 -0.05,0.26 -0.05,0.447 0.52,-0.02 1.925,-0.03 2.695,-0.03 0.77,0 1.613,0.01 2.019,0.02 0.06,-0.479 0.167,-1.072 0.323,-1.551 -0.125,-0.125 -0.25,-0.187 -0.458,-0.249 -0.344,0.968 -0.666,1.311 -1.821,1.311 v 0 h -0.06 c -0.781,0 -0.937,-0.198 -0.937,-0.968 v -4.246 c 0,-0.729 0.167,-0.905 0.718,-0.937 0.04,-0.114 0.05,-0.26 0.05,-0.447 -0.416,0.02 -0.811,0.03 -1.259,0.03 -0.302,0 -0.853,-0.01 -1.259,-0.03 z m 7.815,2.206 c -0.531,0 -1.207,0.177 -1.769,0.468 0.06,0.312 0.08,0.791 0.05,1.135 0.104,0.05 0.385,0.07 0.541,0.07 0.02,-0.438 0.219,-1.208 0.917,-1.208 0.26,0 0.478,0.104 0.644,0.312 0.177,0.219 0.219,0.437 0.219,1.291 -0.853,0.124 -2.664,0.405 -2.664,1.758 0,0.687 0.468,1.104 1.343,1.104 0.51,0 0.863,-0.146 1.102,-0.354 0.167,-0.146 0.292,-0.333 0.365,-0.51 -0.01,0.09 -0.01,0.197 -0.01,0.27 0,0.396 0.09,0.552 0.249,0.614 0.323,-0.177 0.791,-0.301 1.135,-0.322 0.05,-0.146 0.06,-0.333 0.06,-0.479 -0.562,-0.03 -0.646,-0.218 -0.646,-0.812 v 0 -1.145 c 0,-0.926 -0.08,-1.446 -0.437,-1.8 -0.229,-0.229 -0.593,-0.395 -1.103,-0.395 z m 68.78,0 c -0.323,0.167 -0.895,0.323 -1.322,0.354 -0.06,0.125 -0.07,0.229 -0.07,0.385 0.635,0.02 0.687,0.25 0.687,0.739 v 1.572 c 0,1.384 0.551,1.852 1.488,1.852 0.562,0 0.936,-0.167 1.301,-0.531 0.145,-0.146 0.26,-0.291 0.333,-0.458 -0.03,0.208 -0.03,0.344 -0.03,0.437 0,0.479 0.114,0.541 0.26,0.604 0.323,-0.177 0.843,-0.302 1.187,-0.323 0.05,-0.145 0.06,-0.333 0.06,-0.479 -0.573,0 -0.646,-0.218 -0.646,-0.707 v -2.987 c 0,-0.302 -0.104,-0.416 -0.228,-0.458 -0.313,0.146 -0.875,0.271 -1.416,0.302 -0.07,0.125 -0.07,0.229 -0.07,0.385 0.687,0.02 0.78,0.25 0.78,0.739 v 1.061 c 0,1.208 -0.53,1.78 -1.217,1.78 -0.645,0 -0.864,-0.51 -0.864,-1.446 v -2.363 c 0,-0.302 -0.104,-0.416 -0.229,-0.458 z m -4.475,0.479 c 0.406,0 0.677,0.145 0.916,0.364 v 1.468 c 0,1.457 -0.646,1.987 -1.259,1.987 -0.458,0 -1.166,-0.458 -1.166,-1.79 0,-1.655 0.937,-2.029 1.509,-2.029 z m -63.701,2.019 v 0.395 c 0,1.041 -0.573,1.468 -1.031,1.468 -0.333,0 -0.624,-0.23 -0.624,-0.739 0,-0.906 0.947,-1.031 1.655,-1.124 z m -8.435,14.211 c 0,0.355 0.02,0.632 0.1,0.849 1.047,0.06 1.364,0.395 1.364,1.719 v 8.337 c 0,1.323 -0.317,1.659 -1.364,1.719 -0.08,0.217 -0.1,0.494 -0.1,0.849 0.671,-0.04 1.62,-0.06 2.39,-0.06 0.771,0 1.6,0.02 2.39,0.06 0,-0.355 -0.02,-0.632 -0.1,-0.849 -1.047,-0.06 -1.363,-0.396 -1.363,-1.719 v -3.793 c 1.501,-0.119 4.524,-0.119 6.025,-0.119 v 3.912 c 0,1.323 -0.316,1.659 -1.363,1.719 -0.08,0.217 -0.1,0.494 -0.1,0.849 0.672,-0.04 1.62,-0.06 2.391,-0.06 0.77,0 1.6,0.02 2.39,0.06 0,-0.355 -0.02,-0.632 -0.1,-0.849 -1.047,-0.06 -1.363,-0.396 -1.363,-1.719 v -8.337 c 0,-1.324 0.316,-1.66 1.363,-1.719 0.08,-0.217 0.1,-0.494 0.1,-0.849 -0.79,0.04 -1.541,0.06 -2.39,0.06 -0.85,0 -1.66,-0.02 -2.391,-0.06 0,0.355 0.02,0.632 0.1,0.849 1.047,0.06 1.363,0.395 1.363,1.719 v 3.576 h -6.025 v -3.576 c 0,-1.324 0.316,-1.66 1.363,-1.719 0.08,-0.217 0.1,-0.494 0.1,-0.849 -0.79,0.04 -1.54,0.06 -2.39,0.06 -0.849,0 -1.659,-0.02 -2.39,-0.06 z m 38.028,1.165 c -0.395,0.336 -0.948,0.652 -1.462,0.79 v 2.608 h -1.245 c -0.138,0.316 -0.177,0.534 -0.177,0.869 0.652,0.04 1.027,0.119 1.422,0.257 v 5.354 c 0,1.798 0.731,2.549 2.292,2.549 0.829,0 1.797,-0.396 2.232,-0.889 -0.02,-0.218 -0.138,-0.475 -0.296,-0.652 -0.375,0.316 -0.751,0.474 -1.304,0.474 -0.711,0 -1.145,-0.573 -1.145,-1.897 v -4.939 c 0.651,-0.138 1.441,-0.217 2.39,-0.257 0.118,-0.296 0.177,-0.612 0.177,-0.869 h -2.567 v -2.37 c 0,-0.83 -0.06,-0.909 -0.317,-1.028 z m -19.36,3.023 c -1.008,0 -2.292,0.336 -3.359,0.889 0.119,0.593 0.158,1.501 0.1,2.153 0.198,0.1 0.731,0.139 1.027,0.139 0.04,-0.83 0.415,-2.292 1.739,-2.292 0.494,0 0.909,0.197 1.225,0.593 0.335,0.414 0.415,0.829 0.415,2.449 -1.62,0.237 -5.058,0.771 -5.058,3.339 0,1.304 0.889,2.094 2.549,2.094 0.968,0 1.639,-0.276 2.094,-0.671 0.316,-0.277 0.553,-0.633 0.691,-0.969 -0.02,0.178 -0.02,0.375 -0.02,0.514 0,0.75 0.178,1.047 0.474,1.166 0.613,-0.336 1.502,-0.573 2.154,-0.613 0.1,-0.276 0.118,-0.632 0.118,-0.909 -1.067,-0.06 -1.225,-0.415 -1.225,-1.541 v -2.173 c 0,-1.758 -0.158,-2.746 -0.829,-3.417 -0.435,-0.435 -1.126,-0.751 -2.094,-0.751 z m 7.902,0 c -0.612,0.316 -1.699,0.612 -2.509,0.672 -0.118,0.237 -0.138,0.434 -0.138,0.731 1.205,0.04 1.304,0.473 1.304,1.402 v 2.983 c 0,2.628 1.047,3.517 2.825,3.517 1.066,0 1.778,-0.316 2.469,-1.008 0.277,-0.276 0.494,-0.553 0.632,-0.869 -0.06,0.395 -0.06,0.652 -0.06,0.83 0,0.908 0.218,1.027 0.494,1.146 0.613,-0.336 1.6,-0.573 2.252,-0.613 0.1,-0.276 0.119,-0.632 0.119,-0.909 -1.087,0 -1.225,-0.414 -1.225,-1.343 v 0 -5.67 c 0,-0.573 -0.198,-0.79 -0.435,-0.869 -0.592,0.276 -1.659,0.514 -2.686,0.573 -0.139,0.237 -0.139,0.434 -0.139,0.731 1.304,0.04 1.482,0.474 1.482,1.402 v 2.016 c 0,2.291 -1.007,3.378 -2.311,3.378 -1.225,0 -1.64,-0.968 -1.64,-2.746 v -4.485 c 0,-0.573 -0.198,-0.79 -0.434,-0.869 z m -6.757,4.741 v 0.751 c 0,1.976 -1.086,2.785 -1.955,2.785 -0.632,0 -1.186,-0.434 -1.186,-1.402 0,-1.719 1.798,-1.956 3.141,-2.134 z m 5.58,16.333 c 0,0.237 0.02,0.593 0.1,0.85 1.086,0 1.442,0.474 1.324,1.877 l -0.633,7.033 c -0.217,2.39 -0.553,2.765 -1.6,2.864 -0.08,0.277 -0.1,0.672 -0.1,0.85 0.534,-0.04 1.403,-0.06 1.976,-0.06 0.573,0 1.482,0.02 2.114,0.06 0,-0.178 -0.02,-0.573 -0.1,-0.85 -1.165,-0.1 -1.501,-0.592 -1.284,-2.687 l 0.632,-6.341 4.603,9.996 c 0.316,0 0.573,-0.04 0.81,-0.138 l 4.09,-9.878 0.711,6.776 c 0.178,1.739 0.06,2.154 -1.205,2.272 -0.08,0.257 -0.119,0.613 -0.119,0.85 0.672,-0.04 1.699,-0.06 2.411,-0.06 0.711,0 1.757,0.02 2.37,0.06 0,-0.257 -0.02,-0.593 -0.1,-0.87 -0.928,-0.08 -1.244,-0.553 -1.442,-2.508 l -0.711,-7.251 c -0.158,-1.581 0.415,-1.995 1.343,-1.995 0.08,-0.297 0.1,-0.574 0.1,-0.85 -0.533,0.04 -0.987,0.06 -1.501,0.06 -0.514,0 -1.087,-0.02 -1.541,-0.06 l -4.307,10.925 -4.938,-10.925 c -0.514,0.04 -1.008,0.06 -1.502,0.06 -0.494,0 -1.106,-0.02 -1.501,-0.06 z m 41.98,1.166 c -0.395,0.336 -0.948,0.652 -1.462,0.79 v 2.608 h -1.244 c -0.138,0.316 -0.178,0.533 -0.178,0.869 0.652,0.04 1.027,0.118 1.422,0.257 v 5.354 c 0,1.798 0.731,2.548 2.292,2.548 0.829,0 1.797,-0.395 2.232,-0.889 -0.02,-0.217 -0.138,-0.474 -0.296,-0.652 -0.375,0.316 -0.751,0.474 -1.304,0.474 -0.711,0 -1.145,-0.572 -1.145,-1.896 v -4.939 c 0.651,-0.139 1.441,-0.217 2.389,-0.257 0.119,-0.296 0.178,-0.613 0.178,-0.869 h -2.567 v -2.371 c 0,-0.829 -0.06,-0.908 -0.317,-1.027 z m -20.328,3.022 c -2.628,0 -4.465,2.016 -4.465,4.703 0,2.844 1.758,4.701 4.465,4.701 2.667,0 4.464,-1.995 4.464,-4.701 0,-2.806 -1.659,-4.703 -4.464,-4.703 z m 8.791,0 c -0.613,0.317 -1.837,0.613 -2.647,0.672 -0.139,0.218 -0.178,0.435 -0.178,0.731 1.304,0.04 1.481,0.474 1.481,1.403 v 3.911 c 0,1.324 -0.336,1.719 -1.363,1.719 -0.08,0.218 -0.1,0.494 -0.1,0.85 0.573,-0.04 1.541,-0.06 2.351,-0.06 0.81,0 1.798,0.04 2.351,0.06 0,-0.356 -0.02,-0.613 -0.1,-0.85 -1.027,0 -1.363,-0.395 -1.363,-1.719 v -2.114 c 0,-2.41 1.205,-3.299 2.233,-3.299 1.066,0 1.837,0.553 1.837,2.411 v 3.002 c 0,1.324 -0.415,1.719 -1.363,1.719 -0.08,0.218 -0.1,0.494 -0.1,0.85 0.612,-0.02 1.541,-0.06 2.351,-0.06 0.81,0 1.58,0.02 2.153,0.06 0,-0.356 -0.02,-0.613 -0.1,-0.85 -0.79,0 -1.164,-0.356 -1.164,-1.719 v -3.397 c 0,-2.411 -1.324,-3.221 -2.826,-3.221 -1.402,0 -2.429,0.81 -2.864,1.423 -0.158,0.217 -0.217,0.375 -0.297,0.514 0.119,-0.455 0.139,-0.85 0.139,-1.166 0,-0.573 -0.198,-0.791 -0.435,-0.87 z m -8.989,0.949 c 1.462,0 2.687,1.541 2.687,3.99 0,2.074 -0.751,3.517 -2.331,3.517 -1.6,0 -2.628,-1.501 -2.628,-4.168 0,-1.976 0.751,-3.339 2.272,-3.339 z"
           style="font-size:10.40690041px;line-height:23.54789925px;font-family:Vollkorn;-inkscape-font-specification:Vollkorn;letter-spacing:0px;word-spacing:0px;display:inline;fill:#ffffff;fill-opacity:1;stroke:none;stroke-width:7.99997997;stroke-miterlimit:4;stroke-dasharray:none;paint-order:stroke fill markers"
           id="path1137-2"
           inkscape:connector-curvature="0" />
        <g
           transform="translate(120,120)"
           clip-path="url(#clipPath6459)"
           id="g6457">
          <path
             sodipodi:nodetypes="csccssc"
             d="m 43.3492,42.6008 c 4.3707,-0.7334 8.6498,-1.9354 12.7117,-3.7065 1.2599,-0.5493 2.4913,-1.1494 3.6996,-1.791 M 78.7549,23.9771 c 0.8935,-0.6684 1.7902,-1.331 2.6924,-1.983 4.1299,-2.9842 8.42861,-5.774878 13.0739,-7.8678 1.588385,-0.715642 3.220102,-1.34842 4.883741,-1.874241"
             style="display:inline;fill:none;fill-opacity:1;stroke:#ffffff;stroke-width:1.20000005;stroke-linecap:round;stroke-linejoin:round;stroke-miterlimit:4;stroke-dasharray:none;stroke-dashoffset:0;stroke-opacity:1;paint-order:normal"
             id="path80219"
             inkscape:connector-curvature="0" />
          <g
             id="g5389">
            <path
               id="path93151"
               d="m 54.0715,52.1594 c 2.4542,0.9176 4.9326,1.7716 7.4305,2.554"
               style="display:inline;fill:none;fill-opacity:1;stroke:#ffffff;stroke-width:1.20000005;stroke-linecap:round;stroke-linejoin:round;stroke-miterlimit:4;stroke-dasharray:none;stroke-dashoffset:0;stroke-opacity:1;paint-order:normal"
               inkscape:connector-curvature="0" />
            <path
               sodipodi:nodetypes="cssssc"
               id="path83615"
               d="M 0.62119234,43.013149 C 2.1678948,42.329317 3.714474,41.644708 5.28339,41.0149 8.9322221,39.550155 12.7588,38.3728 16.6891,38.2653 c 3.9494,-0.1079 7.8633,0.8718 11.5487,2.2956 3.6854,1.4237 7.1811,3.2879 10.7233,5.0382 0.8806,0.4349 1.7656,0.863 2.6554,1.284"
               style="display:inline;fill:none;fill-opacity:1;stroke:#ffffff;stroke-width:1.20000005;stroke-linecap:round;stroke-linejoin:round;stroke-miterlimit:4;stroke-dasharray:none;stroke-dashoffset:0;stroke-opacity:1;paint-order:normal"
               inkscape:connector-curvature="0" />
            <path
               sodipodi:nodetypes="csc"
               id="path93127"
               d="M 31.6322,72.1603 C 23.786,75.7407 15.748805,78.765653 7.21626,79.5887 5.0189228,79.800655 2.8147363,79.861879 0.61331101,79.792199"
               style="display:inline;fill:none;fill-opacity:1;stroke:#ffffff;stroke-width:1.20000005;stroke-linecap:round;stroke-linejoin:round;stroke-miterlimit:4;stroke-dasharray:none;stroke-dashoffset:0;stroke-opacity:1;paint-order:normal"
               inkscape:connector-curvature="0" />
            <path
               sodipodi:nodetypes="csssc"
               id="path79823"
               d="M 99.403933,62.772829 C 93.781233,59.894113 87.864283,57.667742 81.62,56.9434 c -6.510091,-0.755176 -13.134,0.1655 -19.4323,1.9773 -6.2984,1.8119 -12.3078,4.4994 -18.217,7.3338 -0.937,0.4495 -1.8744,0.9036 -2.8128,1.3593"
               style="display:inline;fill:none;fill-opacity:1;stroke:#ffffff;stroke-width:1.20000005;stroke-linecap:round;stroke-linejoin:round;stroke-miterlimit:4;stroke-dasharray:none;stroke-dashoffset:0;stroke-opacity:1;paint-order:normal"
               inkscape:connector-curvature="0" />
          </g>
        </g>
      </g>
    </g>
  </g>
</svg>
