<?xml version="1.0" encoding="UTF-8" standalone="no"?>
<!-- Created with Inkscape (http://www.inkscape.org/) -->

<svg
   xmlns:dc="http://purl.org/dc/elements/1.1/"
   xmlns:cc="http://creativecommons.org/ns#"
   xmlns:rdf="http://www.w3.org/1999/02/22-rdf-syntax-ns#"
   xmlns:svg="http://www.w3.org/2000/svg"
   xmlns="http://www.w3.org/2000/svg"
   xmlns:sodipodi="http://sodipodi.sourceforge.net/DTD/sodipodi-0.dtd"
   xmlns:inkscape="http://www.inkscape.org/namespaces/inkscape"
   width="80.513mm"
   height="68.097mm"
   viewBox="0 0 80.513001 68.097"
   version="1.1"
   id="svg962"
   inkscape:version="0.92.4 (5da689c313, 2019-01-14)"
   sodipodi:docname="logo.svg">
  <defs
     id="defs956" />
  <sodipodi:namedview
     id="base"
     pagecolor="#ffffff"
     bordercolor="#666666"
     borderopacity="1.0"
     inkscape:pageopacity="0.0"
     inkscape:pageshadow="2"
     inkscape:zoom="1.2933566"
     inkscape:cx="83.251549"
     inkscape:cy="141.7625"
     inkscape:document-units="mm"
     inkscape:current-layer="layer1"
     showgrid="false"
     inkscape:window-width="1920"
     inkscape:window-height="1051"
     inkscape:window-x="0"
     inkscape:window-y="0"
     inkscape:window-maximized="1"
     inkscape:snap-bbox="true"
     inkscape:bbox-nodes="true"
     inkscape:snap-page="true"
     showguides="true"
     inkscape:guide-bbox="true"
     inkscape:snap-nodes="false" />
  <metadata
     id="metadata959">
    <rdf:RDF>
      <cc:Work
         rdf:about="">
        <dc:format>image/svg+xml</dc:format>
        <dc:type
           rdf:resource="http://purl.org/dc/dcmitype/StillImage" />
        <dc:title></dc:title>
      </cc:Work>
    </rdf:RDF>
  </metadata>
  <g
     inkscape:label="Calque 1"
     inkscape:groupmode="layer"
     id="layer1"
     transform="translate(0,-228.903)">
    <g
       transform="translate(-129.90478,212.79105)"
       style="display:inline"
       id="g11684">
      <path
         inkscape:connector-curvature="0"
         id="path1143-2"
         style="display:inline;fill:none;fill-opacity:1;stroke:#ffffff;stroke-width:1.20000005;stroke-linecap:round;stroke-linejoin:round;stroke-miterlimit:4;stroke-dasharray:none;stroke-dashoffset:0;stroke-opacity:1;paint-order:normal"
         d="m 198.754,23.977 c 0.894,-0.6684 1.79,-1.331 2.693,-1.9829 2.598,-1.8778 5.264,-3.6789 8.04,-5.2778" />
      <path
         inkscape:connector-curvature="0"
         id="path1145-9"
         style="display:inline;fill:none;fill-opacity:1;stroke:#ffffff;stroke-width:1.20000005;stroke-linecap:round;stroke-linejoin:round;stroke-miterlimit:4;stroke-dasharray:none;stroke-dashoffset:0;stroke-opacity:1;paint-order:normal"
         d="m 163.349,42.6008 c 4.37,-0.7335 8.649,-1.9355 12.711,-3.7066 1.26,-0.5492 2.491,-1.1493 3.7,-1.7909" />
      <path
         inkscape:connector-curvature="0"
         style="display:inline;fill:none;fill-opacity:1;stroke:#ffffff;stroke-width:1.20000005;stroke-linecap:round;stroke-linejoin:round;stroke-miterlimit:4;stroke-dasharray:none;stroke-dashoffset:0;stroke-opacity:1;paint-order:normal"
         d="m 174.071,52.1594 c 2.454,0.9175 4.932,1.7716 7.43,2.554"
         id="path1147-1" />
      <path
         inkscape:connector-curvature="0"
         id="path1149-2"
         style="display:inline;fill:none;fill-opacity:1;stroke:#ffffff;stroke-width:1.19999003;stroke-linecap:round;stroke-linejoin:round;stroke-miterlimit:4;stroke-dasharray:none;stroke-dashoffset:0;stroke-opacity:1;paint-order:normal"
         d="m 130.513,39.2279 c 2.021,-0.5453 4.084,-0.9054 6.175,-0.9626 3.95,-0.1079 7.864,0.8718 11.549,2.2955 3.686,1.4238 7.181,3.288 10.723,5.0382 0.881,0.435 1.766,0.8631 2.656,1.284" />
      <path
         inkscape:connector-curvature="0"
         id="path1151-7"
         style="display:inline;fill:none;fill-opacity:1;stroke:#ffffff;stroke-width:1.20000005;stroke-linecap:round;stroke-linejoin:round;stroke-miterlimit:4;stroke-dasharray:none;stroke-dashoffset:0;stroke-opacity:1;paint-order:normal"
         d="m 151.631,72.1603 c -6.827,3.1154 -13.8,5.8105 -21.118,7" />
      <path
         inkscape:connector-curvature="0"
         id="path1153-0"
         style="display:inline;fill:none;fill-opacity:1;stroke:#ffffff;stroke-width:1.20000005;stroke-linecap:round;stroke-linejoin:round;stroke-miterlimit:4;stroke-dasharray:none;stroke-dashoffset:0;stroke-opacity:1;paint-order:normal"
         d="m 209.488,58.6411 c -2.564,-0.7982 -5.187,-1.3867 -7.869,-1.6978 -6.51,-0.7551 -13.134,0.1656 -19.432,1.9772 -6.299,1.8121 -12.308,4.4995 -18.217,7.334 -0.937,0.4495 -1.875,0.9035 -2.813,1.3592" />
      <path
         inkscape:connector-curvature="0"
         style="display:inline;fill:#ffffff;fill-opacity:1;stroke:#ffffff;stroke-width:0.40000001;stroke-linecap:square;stroke-linejoin:round;stroke-miterlimit:4;stroke-dasharray:none;stroke-dashoffset:0;stroke-opacity:1"
         d="m 188.1,57 v -5.0001 h -1.2 L 188.6,49.2 h 16 l 1.7,2.7999 h -1.2 V 57 Z"
         id="path1155-9" />
      <path
         inkscape:connector-curvature="0"
         id="path1157-3"
         style="font-size:10.40690041px;line-height:23.54789925px;font-family:Vollkorn;-inkscape-font-specification:Vollkorn;letter-spacing:0px;word-spacing:0px;display:inline;fill:#ffffff;fill-opacity:1;stroke:none;stroke-width:7.99997997;stroke-miterlimit:4;stroke-dasharray:none;paint-order:stroke fill markers"
         d="m 143.533,20.0927 c 0,0.3556 0.02,0.6322 0.1,0.8495 1.048,0.059 1.364,0.3952 1.364,1.7188 v 8.3369 c 0,1.3237 -0.316,1.6594 -1.364,1.7187 -0.08,0.2175 -0.1,0.494 -0.1,0.8496 0.514,-0.039 1.759,-0.059 2.687,-0.059 0.929,0 1.877,0.021 2.489,0.059 0,-0.3556 -0.02,-0.6321 -0.1,-0.8496 -1.244,-0.059 -1.758,-0.3953 -1.758,-2.114 v -3.003 h 1.363 c 1.62,0 2.134,0.3955 2.232,1.7586 0.297,0.079 0.554,0.099 0.91,0.099 -0.04,-0.6717 -0.04,-1.5999 -0.04,-2.2913 0,-0.6916 0,-1.4817 0.04,-2.1533 -0.356,0 -0.613,0.039 -0.949,0.1379 -0.02,1.2841 -0.573,1.6006 -2.193,1.6006 h -1.363 v -5.8086 h 1.758 c 2.549,0 3.142,1.2841 3.241,2.5089 0.355,0 0.671,-0.059 0.888,-0.2372 -0.197,-0.8495 -0.336,-2.2321 -0.415,-3.1212 -0.652,0.02 -2.41,0.059 -5.492,0.059 -0.948,0 -2.43,-0.02 -3.299,-0.059 z m 13.869,4.1878 c -2.529,0 -4.089,2.1734 -4.089,4.702 0,2.5879 1.382,4.7022 4.187,4.7022 1.443,0 2.608,-0.4546 3.517,-1.6399 -0.04,-0.2172 -0.256,-0.4942 -0.474,-0.6128 v 0 c -0.652,0.7507 -1.541,1.1457 -2.41,1.1457 -2.074,0 -2.746,-1.6793 -2.864,-3.4375 2.054,-0.099 4.701,-0.099 5.531,-0.099 0.138,-0.1778 0.237,-0.3953 0.296,-0.6717 -0.158,-2.2523 -1.126,-4.0898 -3.694,-4.0898 z m 35.125,0 c -2.528,0 -4.089,2.1734 -4.089,4.702 0,2.5879 1.383,4.7022 4.188,4.7022 1.442,0 2.608,-0.4546 3.517,-1.6399 -0.04,-0.2172 -0.257,-0.4942 -0.474,-0.6128 v 0 c -0.652,0.7507 -1.541,1.1457 -2.41,1.1457 -2.075,0 -2.746,-1.6793 -2.865,-3.4375 2.055,-0.099 4.702,-0.099 5.532,-0.099 0.138,-0.1778 0.236,-0.3953 0.296,-0.6717 -0.158,-2.2523 -1.126,-4.0898 -3.695,-4.0898 z m -27.104,0 c -0.613,0.3161 -1.837,0.6121 -2.647,0.6713 -0.139,0.2173 -0.178,0.4348 -0.178,0.7312 1.304,0.04 1.482,0.474 1.482,1.4025 v 3.9118 c 0,1.3237 -0.317,1.6595 -1.364,1.7188 -0.08,0.2174 -0.1,0.4939 -0.1,0.8495 0.514,-0.039 1.679,-0.059 2.608,-0.059 0.928,0 1.877,0.021 2.489,0.059 0,-0.3556 -0.02,-0.6321 -0.1,-0.8495 -1.244,-0.059 -1.758,-0.3953 -1.758,-2.1141 v -1.8965 c 0,-1.5409 0.988,-2.8049 1.679,-2.8049 0.514,0 0.909,0.2762 0.968,1.5405 0.435,0 0.889,-0.099 1.126,-0.1778 0,-0.6914 0.04,-1.6792 0.139,-2.3311 -0.415,-0.316 -0.83,-0.4738 -1.363,-0.4739 v 0 c -1.027,2e-4 -1.817,0.6913 -2.39,1.5999 -0.159,0.2371 -0.257,0.573 -0.415,1.0273 0.119,-0.5927 0.256,-1.1851 0.256,-1.9358 0,-0.5729 -0.197,-0.7901 -0.434,-0.8692 z m 8.178,0 c -0.513,0.2964 -1.876,0.6318 -2.548,0.6713 -0.138,0.2173 -0.178,0.4348 -0.178,0.7312 1.304,0.04 1.482,0.474 1.482,1.4025 v 3.9118 c 0,1.3237 -0.316,1.6595 -1.363,1.7188 -0.08,0.2174 -0.1,0.4939 -0.1,0.8495 0.632,-0.039 1.66,-0.059 2.351,-0.059 0.692,0 1.679,0.021 2.351,0.059 0,-0.3556 -0.02,-0.6125 -0.1,-0.8495 -1.047,-0.059 -1.383,-0.3951 -1.383,-1.7188 v -2.2127 c 0,-2.4101 1.185,-3.299 2.192,-3.299 1.067,0 1.818,0.5532 1.818,2.4103 v 3.1014 c 0,1.3237 -0.316,1.6595 -1.363,1.7188 -0.08,0.2174 -0.1,0.4939 -0.1,0.8495 0.711,-0.039 1.58,-0.059 2.351,-0.059 0.77,0 1.679,0.021 2.35,0.059 0,-0.3556 -0.02,-0.6125 -0.1,-0.8495 -1.007,-0.059 -1.383,-0.3554 -1.383,-1.7188 v -2.114 c 0,-2.4101 1.185,-3.299 2.193,-3.299 1.067,0 1.817,0.5532 1.817,2.4103 v 3.0027 c 0,1.3237 -0.316,1.6595 -1.363,1.7188 -0.08,0.2174 -0.1,0.4939 -0.1,0.8495 0.652,-0.039 1.561,-0.059 2.351,-0.059 0.79,0 1.561,0.021 2.153,0.059 0,-0.3556 -0.02,-0.6125 -0.1,-0.8495 -0.809,-0.059 -1.183,-0.3562 -1.183,-1.7188 V 27.599 c 0,-2.41 -1.305,-3.2198 -2.786,-3.2198 -1.383,0 -2.391,0.8098 -2.825,1.4222 -0.139,0.1778 -0.237,0.3559 -0.336,0.6325 0,-0.1778 -0.04,-0.3558 -0.08,-0.494 -0.415,-1.2051 -1.423,-1.6594 -2.529,-1.6594 -1.383,0 -2.41,0.8097 -2.825,1.4222 -0.06,0.059 -0.138,0.2177 -0.316,0.6325 0.06,-0.5926 0.08,-0.9287 0.08,-1.2645 0,-0.4939 -0.197,-0.7111 -0.434,-0.7902 z m -16.377,0.9483 c 1.146,0 1.818,1.1853 1.818,2.9237 h -3.793 c 0.118,-2.2915 1.066,-2.9237 1.975,-2.9237 z m 35.125,0 c 1.146,0 1.818,1.1853 1.818,2.9237 h -3.793 c 0.118,-2.2915 1.067,-2.9237 1.975,-2.9237 z m 11.323,0.816 c -0.249,0.1769 -1.082,0.3534 -1.394,0.3534 -0.07,0.1144 -0.09,0.229 -0.09,0.3851 0.708,0 0.78,0.2498 0.78,0.7387 v 1.2698 c -0.281,-0.094 -0.519,-0.1456 -0.863,-0.1456 -1.561,0 -2.591,1.1862 -2.591,2.6432 0,1.6026 0.728,2.3104 1.946,2.3104 0.697,0 1.238,-0.4578 1.425,-0.77 0.05,-0.083 0.136,-0.2082 0.24,-0.4371 -0.05,0.2704 -0.08,0.3953 -0.08,0.6036 0,0.4786 0.114,0.541 0.259,0.6035 0.323,-0.177 0.844,-0.3017 1.187,-0.3226 0.05,-0.1455 0.06,-0.3331 0.06,-0.4789 -0.572,0 -0.646,-0.2182 -0.646,-0.7074 v 0 -5.6301 c 0,-0.2601 -0.104,-0.3744 -0.228,-0.416 z m -73.743,0.3953 c 0,0.1665 0.01,0.3329 0.05,0.4475 0.552,0.031 0.718,0.2082 0.718,0.9054 v 4.2772 c 0,0.8118 -0.177,0.9885 -0.729,1.0195 -0.04,0.1145 -0.05,0.2603 -0.05,0.4476 0.52,-0.021 1.925,-0.031 2.695,-0.031 0.77,0 1.613,0.011 2.019,0.021 0.06,-0.4789 0.167,-1.0721 0.323,-1.5509 -0.125,-0.1249 -0.25,-0.1871 -0.458,-0.2496 -0.344,0.9679 -0.666,1.3111 -1.821,1.3111 v 0 h -0.06 c -0.781,0 -0.937,-0.1977 -0.937,-0.9679 v -4.2463 c 0,-0.7284 0.167,-0.9051 0.718,-0.9363 0.04,-0.1146 0.05,-0.2601 0.05,-0.4475 -0.416,0.021 -0.811,0.031 -1.259,0.031 -0.302,0 -0.853,-0.011 -1.259,-0.031 z m 7.815,2.2061 c -0.531,0 -1.207,0.1768 -1.769,0.4681 0.06,0.3122 0.08,0.7908 0.05,1.1343 0.104,0.052 0.385,0.073 0.541,0.073 0.02,-0.4373 0.219,-1.2073 0.917,-1.2073 0.26,0 0.478,0.104 0.644,0.3122 0.177,0.2186 0.219,0.4369 0.219,1.2904 -0.853,0.1246 -2.664,0.4056 -2.664,1.7584 0,0.6869 0.468,1.1033 1.343,1.1033 0.51,0 0.863,-0.1458 1.102,-0.354 0.167,-0.1458 0.292,-0.3326 0.365,-0.5096 -0.01,0.094 -0.01,0.1974 -0.01,0.2704 0,0.3953 0.09,0.5514 0.249,0.6139 0.323,-0.177 0.791,-0.3017 1.135,-0.3226 0.05,-0.1455 0.06,-0.3325 0.06,-0.4783 -0.562,-0.031 -0.646,-0.2186 -0.646,-0.812 v 0 -1.1451 c 0,-0.9261 -0.08,-1.4465 -0.437,-1.8003 -0.229,-0.2288 -0.593,-0.3953 -1.103,-0.3953 z m 68.78,0 c -0.323,0.1665 -0.895,0.3228 -1.322,0.3538 -0.06,0.1249 -0.07,0.2291 -0.07,0.385 0.635,0.021 0.687,0.25 0.687,0.7389 v 1.5717 c 0,1.384 0.551,1.852 1.488,1.852 0.562,0 0.936,-0.1664 1.301,-0.5307 0.145,-0.1458 0.26,-0.2913 0.333,-0.4577 -0.03,0.2079 -0.03,0.3434 -0.03,0.4371 0,0.4786 0.114,0.541 0.26,0.6035 0.323,-0.177 0.843,-0.3017 1.187,-0.3226 0.05,-0.1455 0.06,-0.3331 0.06,-0.4789 -0.573,0 -0.646,-0.2182 -0.646,-0.7074 V 29.104 c 0,-0.3019 -0.104,-0.4162 -0.228,-0.4578 -0.313,0.1456 -0.875,0.2704 -1.416,0.3017 -0.07,0.1249 -0.07,0.2288 -0.07,0.3849 0.687,0.021 0.78,0.2501 0.78,0.739 v 1.0615 c 0,1.2073 -0.53,1.7796 -1.217,1.7796 -0.645,0 -0.864,-0.5096 -0.864,-1.4462 V 29.104 c 0,-0.3019 -0.104,-0.4162 -0.229,-0.4578 z m -4.475,0.4789 c 0.406,0 0.677,0.1453 0.916,0.3638 v 1.4677 c 0,1.457 -0.646,1.9875 -1.259,1.9875 -0.458,0 -1.166,-0.458 -1.166,-1.7901 0,-1.6547 0.937,-2.0289 1.509,-2.0289 z m -63.701,2.0185 v 0.3959 c 0,1.0406 -0.573,1.4671 -1.031,1.4671 -0.333,0 -0.624,-0.2292 -0.624,-0.739 0,-0.9054 0.947,-1.0303 1.655,-1.124 z m -8.435,14.2111 c 0,0.3556 0.02,0.632 0.1,0.8495 1.047,0.059 1.364,0.3951 1.364,1.7188 v 8.337 c 0,1.3234 -0.317,1.6594 -1.364,1.7187 -0.08,0.2172 -0.1,0.494 -0.1,0.8496 0.671,-0.039 1.62,-0.059 2.39,-0.059 0.771,0 1.6,0.019 2.39,0.059 0,-0.3556 -0.02,-0.6324 -0.1,-0.8496 -1.047,-0.059 -1.363,-0.3953 -1.363,-1.7187 v -3.7931 c 1.501,-0.1185 4.524,-0.1188 6.025,-0.1188 V 56.26 c 0,1.3234 -0.316,1.6594 -1.363,1.7187 -0.08,0.2172 -0.1,0.494 -0.1,0.8496 0.672,-0.039 1.62,-0.059 2.391,-0.059 0.77,0 1.6,0.019 2.39,0.059 0,-0.3556 -0.02,-0.6324 -0.1,-0.8496 -1.047,-0.059 -1.363,-0.3953 -1.363,-1.7187 v -8.337 c 0,-1.3237 0.316,-1.6595 1.363,-1.7188 0.08,-0.2175 0.1,-0.4939 0.1,-0.8495 -0.79,0.04 -1.541,0.059 -2.39,0.059 -0.85,0 -1.66,-0.021 -2.391,-0.059 0,0.3556 0.02,0.632 0.1,0.8495 1.047,0.059 1.363,0.3951 1.363,1.7188 v 3.5761 H 133.23 V 47.923 c 0,-1.3237 0.316,-1.6595 1.363,-1.7188 0.08,-0.2175 0.1,-0.4939 0.1,-0.8495 -0.79,0.04 -1.54,0.059 -2.39,0.059 -0.849,0 -1.659,-0.021 -2.39,-0.059 z m 38.028,1.1657 c -0.395,0.336 -0.948,0.6519 -1.462,0.7901 v 2.6077 h -1.245 c -0.138,0.3162 -0.177,0.5334 -0.177,0.8691 0.652,0.04 1.027,0.1186 1.422,0.257 v 5.3535 c 0,1.7979 0.731,2.5488 2.292,2.5488 0.829,0 1.797,-0.3951 2.232,-0.8888 -0.02,-0.2175 -0.138,-0.4744 -0.296,-0.6522 -0.375,0.3162 -0.751,0.4744 -1.304,0.4744 -0.711,0 -1.145,-0.5731 -1.145,-1.8965 v -4.9392 c 0.651,-0.1384 1.441,-0.2173 2.39,-0.257 0.118,-0.2963 0.177,-0.6122 0.177,-0.8691 h -2.567 v -2.3704 c 0,-0.8297 -0.06,-0.9089 -0.317,-1.0274 z m -19.36,3.0226 c -1.008,0 -2.292,0.3358 -3.359,0.8887 0.119,0.593 0.158,1.5016 0.1,2.1535 0.198,0.099 0.731,0.1384 1.027,0.1384 0.04,-0.8295 0.415,-2.2919 1.739,-2.2919 0.494,0 0.909,0.1977 1.225,0.593 0.335,0.4148 0.415,0.8294 0.415,2.4492 -1.62,0.2374 -5.058,0.7708 -5.058,3.3391 0,1.3038 0.889,2.0944 2.549,2.0944 0.968,0 1.639,-0.2768 2.094,-0.6718 0.316,-0.2767 0.553,-0.6323 0.691,-0.9681 -0.02,0.1778 -0.02,0.3749 -0.02,0.5133 0,0.7506 0.178,1.0472 0.474,1.1658 0.613,-0.3358 1.502,-0.5729 2.154,-0.6123 0.1,-0.2767 0.118,-0.6326 0.118,-0.9091 -1.067,-0.059 -1.225,-0.4149 -1.225,-1.5409 v -2.173 c 0,-1.7585 -0.158,-2.7459 -0.829,-3.4174 -0.435,-0.4347 -1.126,-0.7509 -2.094,-0.7509 z m 7.902,0 c -0.612,0.3162 -1.699,0.6125 -2.509,0.6718 -0.118,0.2371 -0.138,0.4344 -0.138,0.7308 1.205,0.04 1.304,0.4738 1.304,1.4025 v 2.9832 c 0,2.6276 1.047,3.5166 2.825,3.5166 1.066,0 1.778,-0.3162 2.469,-1.0078 0.277,-0.2765 0.494,-0.553 0.632,-0.8692 -0.06,0.3953 -0.06,0.6522 -0.06,0.83 0,0.9086 0.218,1.0271 0.494,1.1457 0.613,-0.3358 1.6,-0.5729 2.252,-0.6123 0.1,-0.2767 0.119,-0.6326 0.119,-0.9091 -1.087,0 -1.225,-0.4146 -1.225,-1.343 v 0 -5.67 c 0,-0.5729 -0.198,-0.7901 -0.435,-0.8692 -0.592,0.2765 -1.659,0.5138 -2.686,0.5731 -0.139,0.2371 -0.139,0.4344 -0.139,0.7308 1.304,0.039 1.482,0.4738 1.482,1.4025 v 2.0154 c 0,2.2915 -1.007,3.3779 -2.311,3.3779 -1.225,0 -1.64,-0.9681 -1.64,-2.7461 v -4.4844 c 0,-0.5729 -0.198,-0.7901 -0.434,-0.8692 z m -6.757,4.7413 v 0.7509 c 0,1.9757 -1.086,2.7853 -1.955,2.7853 -0.632,0 -1.186,-0.4345 -1.186,-1.4026 0,-1.7184 1.798,-1.9558 3.141,-2.1336 z m 5.58,16.3327 c 0,0.2371 0.02,0.5927 0.1,0.8496 1.086,0 1.442,0.4744 1.324,1.877 l -0.633,7.0331 c -0.217,2.3905 -0.553,2.7657 -1.6,2.8644 -0.08,0.2767 -0.1,0.6718 -0.1,0.8496 0.534,-0.04 1.403,-0.059 1.976,-0.059 0.573,0 1.482,0.021 2.114,0.059 0,-0.1778 -0.02,-0.5729 -0.1,-0.8496 -1.165,-0.099 -1.501,-0.5924 -1.284,-2.6866 l 0.632,-6.3418 4.603,9.9962 c 0.316,0 0.573,-0.039 0.81,-0.1378 l 4.09,-9.878 0.711,6.7763 c 0.178,1.7386 0.06,2.1532 -1.205,2.2717 -0.08,0.2569 -0.119,0.6125 -0.119,0.8496 0.672,-0.04 1.699,-0.059 2.411,-0.059 0.711,0 1.757,0.021 2.37,0.059 0,-0.2567 -0.02,-0.5927 -0.1,-0.8692 -0.928,-0.079 -1.244,-0.553 -1.442,-2.5088 l -0.711,-7.2509 c -0.158,-1.5803 0.415,-1.9952 1.343,-1.9952 0.08,-0.2963 0.1,-0.5731 0.1,-0.8496 -0.533,0.04 -0.987,0.06 -1.501,0.06 -0.514,0 -1.087,-0.021 -1.541,-0.06 l -4.307,10.9249 -4.938,-10.9249 c -0.514,0.04 -1.008,0.06 -1.502,0.06 -0.494,0 -1.106,-0.021 -1.501,-0.06 z m 41.98,1.1661 c -0.395,0.3357 -0.948,0.6516 -1.462,0.79 v 2.6075 h -1.244 c -0.138,0.3162 -0.178,0.5339 -0.178,0.8699 0.652,0.04 1.027,0.118 1.422,0.2561 v 5.3544 c 0,1.7976 0.731,2.5479 2.292,2.5479 0.829,0 1.797,-0.3947 2.232,-0.8887 -0.02,-0.2172 -0.138,-0.4744 -0.296,-0.6522 -0.375,0.3162 -0.751,0.4744 -1.304,0.4744 -0.711,0 -1.145,-0.5728 -1.145,-1.8965 v -4.9393 c 0.651,-0.1381 1.441,-0.2167 2.389,-0.2561 0.119,-0.2966 0.178,-0.613 0.178,-0.8699 h -2.567 v -2.3704 c 0,-0.8295 -0.06,-0.9086 -0.317,-1.0271 z m -20.328,3.0223 c -2.628,0 -4.465,2.0153 -4.465,4.7022 0,2.8448 1.758,4.7013 4.465,4.7013 2.667,0 4.464,-1.9949 4.464,-4.7013 0,-2.8054 -1.659,-4.7022 -4.464,-4.7022 z m 8.791,0 c -0.613,0.3162 -1.837,0.6128 -2.647,0.672 -0.139,0.2173 -0.178,0.4342 -0.178,0.7305 1.304,0.04 1.481,0.4744 1.481,1.4031 v 3.9114 c 0,1.3237 -0.336,1.7187 -1.363,1.7187 -0.08,0.2175 -0.1,0.494 -0.1,0.8496 0.573,-0.04 1.541,-0.059 2.351,-0.059 0.81,0 1.798,0.04 2.351,0.059 0,-0.3556 -0.02,-0.6125 -0.1,-0.8496 -1.027,0 -1.363,-0.395 -1.363,-1.7187 v -2.1141 c 0,-2.41 1.205,-3.299 2.233,-3.299 1.066,0 1.837,0.5532 1.837,2.4103 v 3.0028 c 0,1.3237 -0.415,1.7187 -1.363,1.7187 -0.08,0.2175 -0.1,0.494 -0.1,0.8496 0.612,-0.019 1.541,-0.059 2.351,-0.059 0.81,0 1.58,0.021 2.153,0.059 0,-0.3556 -0.02,-0.6125 -0.1,-0.8496 -0.79,0 -1.164,-0.3559 -1.164,-1.7187 v -3.3978 c 0,-2.4101 -1.324,-3.2203 -2.826,-3.2203 -1.402,0 -2.429,0.8102 -2.864,1.4224 -0.158,0.2175 -0.217,0.3755 -0.297,0.5139 0.119,-0.4546 0.139,-0.8499 0.139,-1.1658 0,-0.5731 -0.198,-0.7903 -0.435,-0.8694 z m -8.989,0.9483 c 1.462,0 2.687,1.5409 2.687,3.9904 0,2.0743 -0.751,3.5166 -2.331,3.5168 -1.6,0 -2.628,-1.5012 -2.628,-4.1682 0,-1.9756 0.751,-3.339 2.272,-3.339 z" />
    </g>
  </g>
</svg>
