<?xml version="1.0" encoding="UTF-8" standalone="no"?>
<!-- Created with Inkscape (http://www.inkscape.org/) -->

<svg
   xmlns:dc="http://purl.org/dc/elements/1.1/"
   xmlns:cc="http://creativecommons.org/ns#"
   xmlns:rdf="http://www.w3.org/1999/02/22-rdf-syntax-ns#"
   xmlns:svg="http://www.w3.org/2000/svg"
   xmlns="http://www.w3.org/2000/svg"
   xmlns:sodipodi="http://sodipodi.sourceforge.net/DTD/sodipodi-0.dtd"
   xmlns:inkscape="http://www.inkscape.org/namespaces/inkscape"
   width="1920"
   height="335.59299"
   viewBox="0 0 507.99999 88.792314"
   version="1.1"
   id="svg2331"
   inkscape:version="0.92.4 (5da689c313, 2019-01-14)"
   sodipodi:docname="outlets.svg">
  <defs
     id="defs2325" />
  <sodipodi:namedview
     id="base"
     pagecolor="#ffffff"
     bordercolor="#666666"
     borderopacity="1.0"
     inkscape:pageopacity="0.0"
     inkscape:pageshadow="2"
     inkscape:zoom="0.69179688"
     inkscape:cx="1098.4443"
     inkscape:cy="-15.147663"
     inkscape:document-units="mm"
     inkscape:current-layer="layer1"
     showgrid="false"
     units="px"
     inkscape:snap-bbox="true"
     inkscape:bbox-nodes="true"
     inkscape:snap-page="true"
     showguides="true"
     inkscape:guide-bbox="true"
     inkscape:window-width="1920"
     inkscape:window-height="1171"
     inkscape:window-x="1920"
     inkscape:window-y="0"
     inkscape:window-maximized="1" />
  <metadata
     id="metadata2328">
    <rdf:RDF>
      <cc:Work
         rdf:about="">
        <dc:format>image/svg+xml</dc:format>
        <dc:type
           rdf:resource="http://purl.org/dc/dcmitype/StillImage" />
        <dc:title></dc:title>
      </cc:Work>
    </rdf:RDF>
  </metadata>
  <g
     inkscape:label="Calque 1"
     inkscape:groupmode="layer"
     id="layer1"
     transform="translate(0,-208.20767)">
    <path
       inkscape:connector-curvature="0"
       d="m 329.75352,263.52357 c 0.19836,-0.0595 0.39645,-0.11931 0.59454,-0.17937 11.4934,-3.49366 22.98944,-8.24903 34.9921,-7.74147 9.36674,0.39614 18.27614,3.99045 26.83628,7.81301 2.6122,1.1667 5.2257,2.36334 7.85767,3.50862"
       style="display:inline;opacity:1;fill:none;fill-opacity:1;stroke:#254117;stroke-width:0.59775132;stroke-linecap:round;stroke-linejoin:round;stroke-miterlimit:4;stroke-dasharray:none;stroke-dashoffset:0;stroke-opacity:1;paint-order:normal"
       id="path4731" />
    <path
       inkscape:connector-curvature="0"
       sodipodi:nodetypes="csccssssscc"
       d="m 253.42218,256.22857 c 0.44507,-0.33291 0.89174,-0.66294 1.34116,-0.98775 2.0572,-1.48649 4.19849,-2.87664 6.51243,-3.91922 2.31394,-1.04248 4.81332,-1.73196 7.35106,-1.76845 2.54762,-0.0359 5.0765,0.58617 7.42222,1.58068 2.34583,0.99462 4.52033,2.35452 6.59598,3.8323 3.72852,2.65453 7.20068,5.72406 11.17564,7.96491 m -58.03502,2.57448 c 2.17713,-0.3653 4.30867,-0.96407 6.33199,-1.84635 0.62761,-0.27356 1.241,-0.57244 1.84291,-0.89212 1.38677,-0.71819 6.28198,-3.88652 9.46163,-6.53848"
       style="display:inline;opacity:1;fill:none;fill-opacity:1;stroke:#254117;stroke-width:0.59775132;stroke-linecap:round;stroke-linejoin:round;stroke-miterlimit:4;stroke-dasharray:none;stroke-dashoffset:0;stroke-opacity:1;paint-order:normal"
       id="path4733" />
    <path
       inkscape:connector-curvature="0"
       d="m 175.87371,261.28896 c 4.9314,-1.29277 9.94256,-2.22076 15.02434,-2.17792 7.84369,0.0666 15.43172,2.43355 23.05459,4.36497"
       style="display:inline;opacity:1;fill:none;fill-opacity:1;stroke:#254117;stroke-width:0.59775132;stroke-linecap:round;stroke-linejoin:round;stroke-miterlimit:4;stroke-dasharray:none;stroke-dashoffset:0;stroke-opacity:1;paint-order:normal"
       id="path4735" />
    <path
       inkscape:connector-curvature="0"
       d="m 123.4922,266.30959 c -2.81544,-0.71029 -5.60595,-1.52718 -8.36168,-2.39839 -10.45512,-3.30496 -20.693681,-7.41615 -31.434112,-9.62338 -16.312671,-3.35252 -33.5384,-2.14093 -49.220836,3.46178 0,0 -10.990429,3.79447 -19.589857,9.26701"
       style="display:inline;opacity:1;fill:none;fill-opacity:1;stroke:#254117;stroke-width:0.59775132;stroke-linecap:round;stroke-linejoin:round;stroke-miterlimit:4;stroke-dasharray:none;stroke-dashoffset:0;stroke-opacity:1;paint-order:normal"
       id="path4737"
       sodipodi:nodetypes="ccccc" />
    <path
       inkscape:connector-curvature="0"
       id="path4739"
       d="m 372.04329,275.98925 c 8.33346,-0.22262 16.60101,-1.83436 24.3269,-4.97676 3.09325,-1.25803 6.08897,-2.74944 9.20463,-3.95427 3.11433,-1.20473 6.38551,-2.12627 9.72391,-2.17546 3.5598,-0.0523 7.06953,0.88924 10.39079,2.16982 3.32257,1.28048 6.5028,2.90185 9.78193,4.28953 5.41944,2.29395 11.09583,3.94228 16.83823,5.23526 15.1895,3.42047 30.9338,4.36814 46.42382,2.79453"
       style="display:inline;opacity:1;fill:none;fill-opacity:1;stroke:#254117;stroke-width:0.59775132;stroke-linecap:round;stroke-linejoin:round;stroke-miterlimit:4;stroke-dasharray:none;stroke-dashoffset:0;stroke-opacity:1;paint-order:normal" />
    <path
       inkscape:connector-curvature="0"
       id="path4741"
       d="m 265.91209,274.12998 c 1.11327,-0.0984 2.22459,-0.2386 3.33299,-0.4233 7.14452,-1.19038 13.84885,-4.15342 20.58258,-6.82352 6.73318,-2.6699 13.73682,-5.09966 20.98007,-5.13328 5.92963,-0.0277 11.75581,1.55916 17.32431,3.59749 4.23909,1.55167 8.378,3.37076 12.58955,4.99316"
       style="display:inline;opacity:1;fill:none;fill-opacity:1;stroke:#254117;stroke-width:0.59775132;stroke-linecap:round;stroke-linejoin:round;stroke-miterlimit:4;stroke-dasharray:none;stroke-dashoffset:0;stroke-opacity:1;paint-order:normal" />
    <path
       inkscape:connector-curvature="0"
       id="path4743"
       d="m 241.12667,270.26694 c 1.22254,0.45702 2.45708,0.88248 3.70136,1.27227"
       style="display:inline;opacity:1;fill:none;fill-opacity:1;stroke:#254117;stroke-width:0.59775132;stroke-linecap:round;stroke-linejoin:round;stroke-miterlimit:4;stroke-dasharray:none;stroke-dashoffset:0;stroke-opacity:1;paint-order:normal" />
    <path
       inkscape:connector-curvature="0"
       id="path4745"
       d="m 41.6756,275.79574 c -5.368068,0.14892 -10.759793,-0.59714 -15.865596,-2.26761 0,0 -15.757744,-6.52844 -20.5821122,-6.12645"
       style="display:inline;opacity:1;fill:none;fill-opacity:1;stroke:#254117;stroke-width:0.59775132;stroke-linecap:round;stroke-linejoin:round;stroke-miterlimit:4;stroke-dasharray:none;stroke-dashoffset:0;stroke-opacity:1;paint-order:normal" />
    <path
       sodipodi:nodetypes="cccccccccccscc"
       inkscape:connector-curvature="0"
       id="path4747"
       d="m 234.6941,277.96518 -4.74502,2.26473 c -3.9084,1.7835 -7.91194,3.29023 -12.16221,3.70029 -4.16282,0.40159 -8.37503,-0.28313 -12.37318,-1.50992 -3.99817,-1.22684 -7.80959,-2.98687 -11.58564,-4.78456 -7.55211,-3.59543 -15.3712,-7.44914 -23.73546,-7.41328 -7.06359,0.0304 -13.7893,2.84804 -20.20917,5.79466 -6.41985,2.94658 -12.90895,6.11596 -19.92607,6.92801 -9.76131,1.1296 -19.40803,-2.41199 -28.48739,-6.1708 -9.079374,-3.75887 -18.356966,-7.86767 -28.183021,-7.94792 -6.455229,-0.0527 -12.810334,1.65652 -18.843699,3.95309 -6.033316,2.29661 -11.823545,5.185 -17.798579,7.62916 -6.447758,2.63754 -13.108215,4.75532 -19.895196,6.32602 0,0 -9.9134767,2.87927 -16.4464633,1.1706"
       style="display:inline;opacity:1;fill:none;fill-opacity:1;stroke:#254117;stroke-width:0.59775251;stroke-linecap:round;stroke-linejoin:round;stroke-miterlimit:4;stroke-dasharray:none;stroke-dashoffset:0;stroke-opacity:1;paint-order:normal" />
    <path
       inkscape:connector-curvature="0"
       id="path4749"
       d="m 505.55015,293.45175 c -12.9518,5.33425 -28.44256,4.02766 -40.31791,-3.40146 -2.78302,-1.7411 -5.36681,-3.78816 -8.16679,-5.50151 -2.80047,-1.71336 -5.88836,-3.10637 -9.16204,-3.34936 -3.93821,-0.2923 -7.81612,1.09892 -11.33489,2.89148 -3.51828,1.79261 -6.82384,4.00698 -10.45369,5.56233 -9.59543,4.11169 -20.71412,3.25058 -30.6413,0.0204 -9.92767,-3.23001 -18.9632,-8.658 -28.09935,-13.70911 -4.8652,-2.68973 -10.00139,-5.3451 -15.5565,-5.55068 -6.12498,-0.22665 -11.91421,2.54513 -17.41204,5.25425 -8.57277,4.22441 -17.22773,8.48739 -26.51081,10.75944 -9.28311,2.27206 -19.37815,2.41926 -28.11778,-1.44845 -4.27045,-1.8899 -8.07714,-4.66407 -12.04472,-7.12646 -3.96808,-2.46234 -8.2442,-4.66461 -12.88297,-5.20269 -3.24286,-0.37613 -6.54239,0.0824 -9.67975,0.98495 -3.13741,0.90256 -6.13085,2.24127 -9.07437,3.65317 -0.46676,0.2239 -0.9337,0.4501 -1.40114,0.6771"
       style="display:inline;opacity:1;fill:none;fill-opacity:1;stroke:#254117;stroke-width:0.59775251;stroke-linecap:round;stroke-linejoin:round;stroke-miterlimit:4;stroke-dasharray:none;stroke-dashoffset:0;stroke-opacity:1;paint-order:normal" />
    <path
       id="path4753"
       d="m 248.11504,272.67814 v -2.49064 h -0.59775 l 0.84682,-1.39475 h 7.97003 l 0.84682,1.39475 h -0.59776 v 2.49064 z"
       style="display:inline;opacity:1;fill:#254117;fill-opacity:1;stroke:#254117;stroke-width:0.19925083;stroke-linecap:square;stroke-linejoin:round;stroke-miterlimit:4;stroke-dasharray:none;stroke-dashoffset:0;stroke-opacity:1"
       inkscape:connector-curvature="0" />
    <path
       style="display:inline;opacity:1;fill:none;fill-opacity:1;stroke:#254117;stroke-width:0.59775132;stroke-linecap:round;stroke-linejoin:round;stroke-miterlimit:4;stroke-dasharray:none;stroke-dashoffset:0;stroke-opacity:1;paint-order:normal"
       d="m 68.656917,266.75082 c 1.043826,-0.62589 2.098211,-1.23191 3.182883,-1.78269 2.94433,-1.49428 6.198345,-2.58369 9.494551,-2.38827 3.208836,0.19048 6.222495,1.57866 9.021052,3.16126 2.798423,1.58275 5.490885,3.39284 8.486606,4.56001 4.233021,1.64969 8.912961,1.93651 13.419991,1.36462 4.50702,-0.57185 8.87013,-1.97284 13.10763,-3.61093 8.47568,-3.27648 16.77249,-7.58079 25.82344,-8.38841 10.21802,-0.91167 20.21131,2.7262 30.03854,5.66983 4.91363,1.47192 9.90302,2.78673 15.00814,3.28396 5.10517,0.49728 10.35812,0.15118 15.1715,-1.62121 1.8379,-0.67665 3.59524,-1.55386 5.41278,-2.28351 1.81753,-0.72976 3.72371,-1.3161 5.68151,-1.3696 1.96729,-0.0538 3.91691,0.43426 5.75273,1.14345 1.83577,0.70918 3.57706,1.63784 5.34155,2.50966 0.43861,0.21669 0.87947,0.42994 1.3227,0.6396"
       id="path4789"
       inkscape:connector-curvature="0" />
    <path
       inkscape:connector-curvature="0"
       id="path4791"
       d="m 234.92251,267.63855 6.20415,2.62827"
       style="opacity:1;vector-effect:none;fill:none;fill-opacity:1;stroke:#254117;stroke-width:0.59775132;stroke-linecap:round;stroke-linejoin:round;stroke-miterlimit:4;stroke-dasharray:none;stroke-dashoffset:0;stroke-opacity:1;paint-order:normal" />
    <path
       inkscape:transform-center-y="0.17131173"
       inkscape:transform-center-x="0.24025345"
       inkscape:connector-curvature="0"
       id="path4795"
       d="m 408.10533,259.77152 h -5.5e-4 c -0.17903,0.0102 -0.3777,0.0205 -0.59178,0.0779 l -4.3418,1.29789 c 0,0 -0.38601,0.0994 -0.38846,0.22949 -0.002,0.13058 0.11559,1.43852 0.29448,1.92948 0.17895,0.49095 0.33521,1.04883 0.33521,1.04883 0,0 0.0462,0.23348 0.30424,0.28166 0.20637,0.0389 0.6364,-0.0328 0.87661,-0.0912 a 0.79394186,0.79394186 0 0 0 0.63311,0.36939 0.79394186,0.79394186 0 0 0 0.83068,-0.75549 0.79394186,0.79394186 0 0 0 5.2e-4,-0.0564 l 4.01335,-1.22584 a 0.79394186,0.79394186 0 0 0 0.62317,0.35484 0.79394186,0.79394186 0 0 0 0.83071,-0.7556 0.79394186,0.79394186 0 0 0 -0.003,-0.10772 c 0.21129,-0.0851 0.39222,-0.16881 0.40553,-0.21001 0.0392,-0.12187 0.0248,-0.45836 -0.0566,-0.55081 -0.0811,-0.0923 -0.21658,-0.38805 -0.22607,-0.43222 -0.009,-0.043 -0.0913,-0.21811 -0.35673,-0.24825 -0.33664,-0.0369 -0.85188,-0.10629 -0.85188,-0.10629 -0.35643,-0.20724 -2e-5,5.2e-4 -2e-5,5.2e-4 l -1.44505,-0.82468 c 0,0 -0.34952,-0.21934 -0.88536,-0.22662 z"
       style="opacity:1;vector-effect:none;fill:#254117;fill-opacity:1;stroke:#254117;stroke-width:0.19925085;stroke-linecap:square;stroke-linejoin:round;stroke-miterlimit:4;stroke-dasharray:none;stroke-dashoffset:0;stroke-opacity:1" />
    <g
       aria-label="Bains-les-Bains"
       style="font-style:normal;font-variant:normal;font-weight:normal;font-stretch:normal;font-size:7.95477438px;line-height:1.25;font-family:Vollkorn;-inkscape-font-specification:Vollkorn;font-variant-ligatures:normal;font-variant-position:normal;font-variant-caps:normal;font-variant-numeric:normal;font-variant-alternates:normal;font-feature-settings:normal;text-indent:0;text-align:center;text-decoration:none;text-decoration-line:none;text-decoration-style:solid;text-decoration-color:#000000;letter-spacing:normal;word-spacing:normal;text-transform:none;writing-mode:lr-tb;direction:ltr;text-orientation:mixed;dominant-baseline:auto;baseline-shift:baseline;text-anchor:middle;white-space:normal;shape-padding:0;opacity:1;vector-effect:none;fill:#ff8040;fill-opacity:1;stroke:none;stroke-width:1.49438131;stroke-linecap:butt;stroke-linejoin:miter;stroke-miterlimit:4;stroke-dasharray:none;stroke-dashoffset:0;stroke-opacity:1;paint-order:normal"
       id="text4799">
      <path
         d="m 61.863522,222.84444 c 0.707975,-0.10341 1.153443,-0.62843 1.153443,-1.31254 0,-0.93071 -0.779568,-1.1614 -1.694367,-1.1614 -0.373875,0 -0.755704,0.0159 -1.137533,0.0159 -0.286372,0 -0.612518,-0.008 -0.827297,-0.0239 0,0.12727 0.008,0.25455 0.03977,0.34205 0.421603,0.0239 0.54888,0.1591 0.54888,0.69207 v 3.26941 c 0,0.62047 -0.135231,0.7557 -0.556834,0.77957 -0.03182,0.0875 -0.03977,0.19887 -0.03977,0.34205 0.397738,-0.0159 1.575045,-0.0239 2.163698,-0.0239 1.352312,0 1.909146,-0.70002 1.909146,-1.56709 0,-0.98639 -0.723884,-1.30458 -1.559136,-1.35231 z m 0.342056,-1.0739 c 0,0.51706 -0.238644,1.01026 -1.264809,1.01026 h -0.246598 v -2.02051 c 0.119321,-0.0318 0.214778,-0.0398 0.326145,-0.0398 0.525015,0 1.185262,0.23069 1.185262,1.05003 z m -0.771613,3.65124 c -0.596609,0 -0.739794,-0.10341 -0.739794,-0.7557 v -1.54323 h 0.182959 c 0.779568,0 1.694367,0.19092 1.694367,1.18527 0,0.69206 -0.357965,1.11366 -1.137532,1.11366 z"
         style="font-size:7.95477438px;text-align:center;text-anchor:middle;fill:#ff8040;fill-opacity:1;stroke:none;stroke-width:1.49438131"
         id="path3141" />
      <path
         d="m 67.010634,224.60244 v -0.87502 c 0,-0.70798 -0.06364,-1.10572 -0.3341,-1.37618 -0.175005,-0.175 -0.453422,-0.30228 -0.843206,-0.30228 -0.405694,0 -0.922754,0.13523 -1.352312,0.35796 0.04773,0.23865 0.06364,0.60457 0.03977,0.86708 0.07955,0.0398 0.294326,0.0557 0.413648,0.0557 0.01591,-0.3341 0.16705,-0.92276 0.70002,-0.92276 0.19887,0 0.36592,0.0795 0.493196,0.23865 0.135231,0.16705 0.167051,0.3341 0.167051,0.98639 -0.652292,0.0955 -2.036423,0.31024 -2.036423,1.34436 0,0.52501 0.357965,0.8432 1.026166,0.8432 0.389784,0 0.660246,-0.11136 0.843206,-0.27046 0.127277,-0.11137 0.222734,-0.25455 0.278417,-0.38978 -0.008,0.0716 -0.008,0.15114 -0.008,0.20682 0,0.30228 0.07159,0.4216 0.190914,0.46933 0.246598,-0.13523 0.604563,-0.23069 0.867071,-0.2466 0.03977,-0.11136 0.04773,-0.25455 0.04773,-0.36591 -0.429558,-0.0239 -0.493196,-0.16706 -0.493196,-0.62048 z m -0.715929,-0.34205 c 0,0.79547 -0.437513,1.12162 -0.787523,1.12162 -0.254553,0 -0.477287,-0.175 -0.477287,-0.56479 0,-0.69206 0.723885,-0.78752 1.26481,-0.85911 z"
         style="font-size:7.95477438px;text-align:center;text-anchor:middle;fill:#ff8040;fill-opacity:1;stroke:none;stroke-width:1.49438131"
         id="path3143" />
      <path
         d="m 68.999701,221.15007 c 0.262507,0 0.477286,-0.21478 0.477286,-0.46138 0,-0.28637 -0.190914,-0.48524 -0.477286,-0.48524 -0.246598,0 -0.469332,0.19887 -0.469332,0.48524 0,0.25456 0.198869,0.46138 0.469332,0.46138 z m -0.88298,4.63763 c 0.262507,-0.0159 0.612517,-0.0239 0.914799,-0.0239 0.302281,0 0.620472,0.008 0.898889,0.0239 0,-0.0716 -0.008,-0.23068 -0.03977,-0.34205 -0.342056,0 -0.469332,-0.1591 -0.469332,-0.69207 v -2.38643 c 0,-0.19887 -0.07955,-0.28637 -0.175005,-0.31819 -0.190915,0.13523 -0.827297,0.27046 -1.06594,0.27046 -0.05568,0.0875 -0.07159,0.17501 -0.07159,0.29433 0.540925,0 0.596608,0.19091 0.596608,0.56479 v 1.57504 c 0,0.53297 -0.127276,0.69207 -0.548879,0.69207 -0.03182,0.10341 -0.03977,0.23864 -0.03977,0.34205 z"
         style="font-size:7.95477438px;text-align:center;text-anchor:middle;fill:#ff8040;fill-opacity:1;stroke:none;stroke-width:1.49438131"
         id="path3145" />
      <path
         d="m 74.637896,225.44565 c -0.318191,0 -0.469332,-0.14319 -0.469332,-0.69207 v -1.36822 c 0,-0.97048 -0.53297,-1.29663 -1.137533,-1.29663 -0.564789,0 -0.978437,0.32615 -1.153442,0.57275 -0.06364,0.0875 -0.0875,0.15114 -0.119322,0.20682 0.04773,-0.18296 0.05568,-0.34205 0.05568,-0.46933 0,-0.23069 -0.07955,-0.31819 -0.175005,-0.35001 -0.246598,0.12728 -0.739794,0.2466 -1.06594,0.27046 -0.05568,0.0875 -0.07159,0.17501 -0.07159,0.29433 0.525015,0.0159 0.596608,0.19091 0.596608,0.56479 v 1.57504 c 0,0.53297 -0.135231,0.69207 -0.548879,0.69207 -0.03182,0.0875 -0.03977,0.19887 -0.03977,0.34205 0.230688,-0.0159 0.620472,-0.0239 0.946618,-0.0239 0.326146,0 0.723884,0.0159 0.946618,0.0239 0,-0.14318 -0.008,-0.24659 -0.03977,-0.34205 -0.413648,0 -0.548879,-0.1591 -0.548879,-0.69207 v -0.85116 c 0,-0.97048 0.485241,-1.32844 0.898889,-1.32844 0.429558,0 0.739794,0.22273 0.739794,0.97048 v 1.20912 c 0,0.53297 -0.16705,0.69207 -0.548879,0.69207 -0.03182,0.0875 -0.03977,0.19887 -0.03977,0.34205 0.246598,-0.008 0.620472,-0.0239 0.946618,-0.0239 0.326146,0 0.636382,0.008 0.86707,0.0239 0,-0.14318 -0.008,-0.24659 -0.03977,-0.34205 z"
         style="font-size:7.95477438px;text-align:center;text-anchor:middle;fill:#ff8040;fill-opacity:1;stroke:none;stroke-width:1.49438131"
         id="path3147" />
      <path
         d="m 77.809115,223.15467 c -0.03977,-0.27841 -0.03182,-0.57274 -0.01591,-0.82729 -0.326146,-0.18296 -0.668201,-0.27842 -1.145488,-0.27842 -0.532969,0 -1.320492,0.31819 -1.320492,0.99435 0,0.64433 0.318191,0.86707 1.177306,1.20912 0.707975,0.28637 0.859116,0.42161 0.859116,0.70002 0,0.29433 -0.254553,0.50911 -0.684111,0.50911 -0.548879,0 -0.890934,-0.32615 -0.970482,-0.99435 -0.159095,0 -0.326146,0.0239 -0.413648,0.0875 0.02386,0.25456 0.02386,0.7398 -0.008,0.9864 0.357965,0.19091 0.676156,0.29432 1.312538,0.29432 0.827296,0 1.455723,-0.44546 1.455723,-1.12162 0,-0.56479 -0.270462,-0.83525 -1.129578,-1.1614 -0.85116,-0.3341 -0.946618,-0.46933 -0.946618,-0.73979 0,-0.26251 0.214779,-0.43751 0.540925,-0.43751 0.51706,0 0.859116,0.43751 0.890935,0.87502 0.15114,0 0.294326,-0.0318 0.397738,-0.0955 z"
         style="font-size:7.95477438px;text-align:center;text-anchor:middle;fill:#ff8040;fill-opacity:1;stroke:none;stroke-width:1.49438131"
         id="path3149" />
      <path
         d="m 81.227556,223.42514 h -2.251201 c -0.07159,0.13523 -0.127277,0.36592 -0.127277,0.54888 0.564789,-0.0159 1.694367,-0.0318 2.275066,-0.0318 0.07159,-0.14319 0.103412,-0.35001 0.103412,-0.51706 z"
         style="font-size:7.95477438px;text-align:center;text-anchor:middle;fill:#ff8040;fill-opacity:1;stroke:none;stroke-width:1.49438131"
         id="path3151" />
      <path
         d="m 81.998547,225.7877 c 0.262508,-0.0159 0.612518,-0.0239 0.914799,-0.0239 0.302282,0 0.620473,0.008 0.89889,0.0239 0,-0.0716 -0.008,-0.23068 -0.03977,-0.34205 -0.342056,0 -0.469332,-0.1591 -0.469332,-0.69207 v -4.37512 c 0,-0.19887 -0.07955,-0.28637 -0.175005,-0.31819 -0.190915,0.13523 -0.827296,0.27046 -1.06594,0.27046 -0.05568,0.0875 -0.07159,0.175 -0.07159,0.29433 0.540925,0 0.596608,0.19091 0.596608,0.56478 v 3.56374 c 0,0.53297 -0.127276,0.69207 -0.548879,0.69207 -0.03182,0.10341 -0.03977,0.23864 -0.03977,0.34205 z"
         style="font-size:7.95477438px;text-align:center;text-anchor:middle;fill:#ff8040;fill-opacity:1;stroke:none;stroke-width:1.49438131"
         id="path3153" />
      <path
         d="m 87.318925,224.92859 c -0.262508,0.30228 -0.620472,0.46138 -0.970482,0.46138 -0.835252,0 -1.105714,-0.67616 -1.153443,-1.38414 0.827297,-0.0398 1.893237,-0.0398 2.227337,-0.0398 0.05568,-0.0716 0.09546,-0.15909 0.119322,-0.27046 -0.06364,-0.90685 -0.453422,-1.64664 -1.487543,-1.64664 -1.018211,0 -1.646638,0.87503 -1.646638,1.89324 0,1.04207 0.556834,1.89323 1.686412,1.89323 0.580698,0 1.05003,-0.18296 1.41595,-0.66024 -0.01591,-0.0875 -0.103412,-0.19887 -0.190915,-0.2466 z m -1.336402,-2.4978 c 0.461377,0 0.731839,0.47729 0.731839,1.17731 h -1.527317 c 0.04773,-0.92276 0.429558,-1.17731 0.795478,-1.17731 z"
         style="font-size:7.95477438px;text-align:center;text-anchor:middle;fill:#ff8040;fill-opacity:1;stroke:none;stroke-width:1.49438131"
         id="path3155" />
      <path
         d="m 90.704551,223.15467 c -0.03977,-0.27841 -0.03182,-0.57274 -0.01591,-0.82729 -0.326146,-0.18296 -0.668201,-0.27842 -1.145487,-0.27842 -0.53297,0 -1.320493,0.31819 -1.320493,0.99435 0,0.64433 0.318191,0.86707 1.177307,1.20912 0.707975,0.28637 0.859115,0.42161 0.859115,0.70002 0,0.29433 -0.254552,0.50911 -0.68411,0.50911 -0.54888,0 -0.890935,-0.32615 -0.970483,-0.99435 -0.159095,0 -0.326145,0.0239 -0.413648,0.0875 0.02386,0.25456 0.02386,0.7398 -0.008,0.9864 0.357965,0.19091 0.676156,0.29432 1.312538,0.29432 0.827297,0 1.455724,-0.44546 1.455724,-1.12162 0,-0.56479 -0.270463,-0.83525 -1.129578,-1.1614 -0.851161,-0.3341 -0.946618,-0.46933 -0.946618,-0.73979 0,-0.26251 0.214779,-0.43751 0.540924,-0.43751 0.517061,0 0.859116,0.43751 0.890935,0.87502 0.151141,0 0.294327,-0.0318 0.397739,-0.0955 z"
         style="font-size:7.95477438px;text-align:center;text-anchor:middle;fill:#ff8040;fill-opacity:1;stroke:none;stroke-width:1.49438131"
         id="path3157" />
      <path
         d="M 94.122991,223.42514 H 91.87179 c -0.07159,0.13523 -0.127277,0.36592 -0.127277,0.54888 0.564789,-0.0159 1.694367,-0.0318 2.275066,-0.0318 0.07159,-0.14319 0.103412,-0.35001 0.103412,-0.51706 z"
         style="font-size:7.95477438px;text-align:center;text-anchor:middle;fill:#ff8040;fill-opacity:1;stroke:none;stroke-width:1.49438131"
         id="path3159" />
      <path
         d="m 97.333737,222.84444 c 0.707975,-0.10341 1.153442,-0.62843 1.153442,-1.31254 0,-0.93071 -0.779567,-1.1614 -1.694366,-1.1614 -0.373875,0 -0.755704,0.0159 -1.137533,0.0159 -0.286372,0 -0.612518,-0.008 -0.827297,-0.0239 0,0.12727 0.008,0.25455 0.03977,0.34205 0.421603,0.0239 0.54888,0.1591 0.54888,0.69207 v 3.26941 c 0,0.62047 -0.135232,0.7557 -0.556835,0.77957 -0.03182,0.0875 -0.03977,0.19887 -0.03977,0.34205 0.397738,-0.0159 1.575045,-0.0239 2.163698,-0.0239 1.352312,0 1.909146,-0.70002 1.909146,-1.56709 0,-0.98639 -0.723884,-1.30458 -1.559136,-1.35231 z m 0.342056,-1.0739 c 0,0.51706 -0.238644,1.01026 -1.26481,1.01026 h -0.246598 v -2.02051 c 0.119322,-0.0318 0.214779,-0.0398 0.326146,-0.0398 0.525015,0 1.185262,0.23069 1.185262,1.05003 z m -0.771614,3.65124 c -0.596608,0 -0.739794,-0.10341 -0.739794,-0.7557 v -1.54323 h 0.18296 c 0.779568,0 1.694367,0.19092 1.694367,1.18527 0,0.69206 -0.357965,1.11366 -1.137533,1.11366 z"
         style="font-size:7.95477438px;text-align:center;text-anchor:middle;fill:#ff8040;fill-opacity:1;stroke:none;stroke-width:1.49438131"
         id="path3161" />
      <path
         d="m 102.48085,224.60244 v -0.87502 c 0,-0.70798 -0.0636,-1.10572 -0.3341,-1.37618 -0.17501,-0.175 -0.45343,-0.30228 -0.84321,-0.30228 -0.40569,0 -0.92275,0.13523 -1.352311,0.35796 0.04773,0.23865 0.06364,0.60457 0.03977,0.86708 0.07955,0.0398 0.294327,0.0557 0.413647,0.0557 0.0159,-0.3341 0.16705,-0.92276 0.70002,-0.92276 0.19887,0 0.36592,0.0795 0.4932,0.23865 0.13523,0.16705 0.16705,0.3341 0.16705,0.98639 -0.65229,0.0955 -2.036424,0.31024 -2.036424,1.34436 0,0.52501 0.357964,0.8432 1.026164,0.8432 0.38979,0 0.66025,-0.11136 0.84321,-0.27046 0.12727,-0.11137 0.22273,-0.25455 0.27841,-0.38978 -0.008,0.0716 -0.008,0.15114 -0.008,0.20682 0,0.30228 0.0716,0.4216 0.19091,0.46933 0.2466,-0.13523 0.60457,-0.23069 0.86707,-0.2466 0.0398,-0.11136 0.0477,-0.25455 0.0477,-0.36591 -0.42955,-0.0239 -0.49319,-0.16706 -0.49319,-0.62048 z m -0.71593,-0.34205 c 0,0.79547 -0.43751,1.12162 -0.78752,1.12162 -0.25456,0 -0.47729,-0.175 -0.47729,-0.56479 0,-0.69206 0.72388,-0.78752 1.26481,-0.85911 z"
         style="font-size:7.95477438px;text-align:center;text-anchor:middle;fill:#ff8040;fill-opacity:1;stroke:none;stroke-width:1.49438131"
         id="path3163" />
      <path
         d="m 104.46991,221.15007 c 0.26251,0 0.47729,-0.21478 0.47729,-0.46138 0,-0.28637 -0.19092,-0.48524 -0.47729,-0.48524 -0.2466,0 -0.46933,0.19887 -0.46933,0.48524 0,0.25456 0.19887,0.46138 0.46933,0.46138 z m -0.88298,4.63763 c 0.26251,-0.0159 0.61252,-0.0239 0.9148,-0.0239 0.30228,0 0.62047,0.008 0.89889,0.0239 0,-0.0716 -0.008,-0.23068 -0.0398,-0.34205 -0.34206,0 -0.46933,-0.1591 -0.46933,-0.69207 v -2.38643 c 0,-0.19887 -0.0795,-0.28637 -0.17501,-0.31819 -0.19091,0.13523 -0.8273,0.27046 -1.06594,0.27046 -0.0557,0.0875 -0.0716,0.17501 -0.0716,0.29433 0.54092,0 0.59661,0.19091 0.59661,0.56479 v 1.57504 c 0,0.53297 -0.12728,0.69207 -0.54888,0.69207 -0.0318,0.10341 -0.0398,0.23864 -0.0398,0.34205 z"
         style="font-size:7.95477438px;text-align:center;text-anchor:middle;fill:#ff8040;fill-opacity:1;stroke:none;stroke-width:1.49438131"
         id="path3165" />
      <path
         d="m 110.10811,225.44565 c -0.31819,0 -0.46933,-0.14319 -0.46933,-0.69207 v -1.36822 c 0,-0.97048 -0.53297,-1.29663 -1.13753,-1.29663 -0.56479,0 -0.97844,0.32615 -1.15345,0.57275 -0.0636,0.0875 -0.0875,0.15114 -0.11932,0.20682 0.0477,-0.18296 0.0557,-0.34205 0.0557,-0.46933 0,-0.23069 -0.0795,-0.31819 -0.17501,-0.35001 -0.2466,0.12728 -0.73979,0.2466 -1.06594,0.27046 -0.0557,0.0875 -0.0716,0.17501 -0.0716,0.29433 0.52501,0.0159 0.59661,0.19091 0.59661,0.56479 v 1.57504 c 0,0.53297 -0.13523,0.69207 -0.54888,0.69207 -0.0318,0.0875 -0.0398,0.19887 -0.0398,0.34205 0.23069,-0.0159 0.62048,-0.0239 0.94662,-0.0239 0.32615,0 0.72389,0.0159 0.94662,0.0239 0,-0.14318 -0.008,-0.24659 -0.0398,-0.34205 -0.41365,0 -0.54888,-0.1591 -0.54888,-0.69207 v -0.85116 c 0,-0.97048 0.48524,-1.32844 0.89889,-1.32844 0.42955,0 0.73979,0.22273 0.73979,0.97048 v 1.20912 c 0,0.53297 -0.16705,0.69207 -0.54888,0.69207 -0.0318,0.0875 -0.0398,0.19887 -0.0398,0.34205 0.24659,-0.008 0.62047,-0.0239 0.94661,-0.0239 0.32615,0 0.63639,0.008 0.86708,0.0239 0,-0.14318 -0.008,-0.24659 -0.0398,-0.34205 z"
         style="font-size:7.95477438px;text-align:center;text-anchor:middle;fill:#ff8040;fill-opacity:1;stroke:none;stroke-width:1.49438131"
         id="path3167" />
      <path
         d="m 113.27933,223.15467 c -0.0398,-0.27841 -0.0318,-0.57274 -0.0159,-0.82729 -0.32615,-0.18296 -0.6682,-0.27842 -1.14549,-0.27842 -0.53297,0 -1.32049,0.31819 -1.32049,0.99435 0,0.64433 0.31819,0.86707 1.17731,1.20912 0.70797,0.28637 0.85911,0.42161 0.85911,0.70002 0,0.29433 -0.25455,0.50911 -0.68411,0.50911 -0.54888,0 -0.89093,-0.32615 -0.97048,-0.99435 -0.1591,0 -0.32615,0.0239 -0.41365,0.0875 0.0239,0.25456 0.0239,0.7398 -0.008,0.9864 0.35796,0.19091 0.67615,0.29432 1.31253,0.29432 0.8273,0 1.45573,-0.44546 1.45573,-1.12162 0,-0.56479 -0.27046,-0.83525 -1.12958,-1.1614 -0.85116,-0.3341 -0.94662,-0.46933 -0.94662,-0.73979 0,-0.26251 0.21478,-0.43751 0.54093,-0.43751 0.51706,0 0.85911,0.43751 0.89093,0.87502 0.15114,0 0.29433,-0.0318 0.39774,-0.0955 z"
         style="font-size:7.95477438px;text-align:center;text-anchor:middle;fill:#ff8040;fill-opacity:1;stroke:none;stroke-width:1.49438131"
         id="path3169" />
    </g>
    <g
       aria-label="↓"
       style="font-style:normal;font-variant:normal;font-weight:normal;font-stretch:normal;font-size:23.14116096px;line-height:1.25;font-family:Vollkorn;-inkscape-font-specification:Vollkorn;font-variant-ligatures:normal;font-variant-position:normal;font-variant-caps:normal;font-variant-numeric:normal;font-variant-alternates:normal;font-feature-settings:normal;text-indent:0;text-align:center;text-decoration:none;text-decoration-line:none;text-decoration-style:solid;text-decoration-color:#000000;letter-spacing:normal;word-spacing:normal;text-transform:none;writing-mode:lr-tb;direction:ltr;text-orientation:mixed;dominant-baseline:auto;baseline-shift:baseline;text-anchor:middle;white-space:normal;shape-padding:0;opacity:1;vector-effect:none;fill:#ff8040;fill-opacity:1;stroke:none;stroke-width:1.49438131;stroke-linecap:butt;stroke-linejoin:miter;stroke-miterlimit:4;stroke-dasharray:none;stroke-dashoffset:0;stroke-opacity:1;paint-order:normal"
       id="text4803">
      <path
         d="m 90.187235,243.89427 c -0.161988,-0.32398 -0.323976,-0.5091 -0.60167,-0.5091 -0.231412,0 -0.485964,0.1157 -0.786799,0.34711 -0.3934,0.30084 -0.948788,0.69424 -1.758729,1.08764 0,-4.39682 0.06942,-8.79364 0.231412,-13.19046 -0.439682,-0.25456 -1.133917,-0.37026 -1.666164,-0.37026 v 13.56072 c -0.856223,-0.34712 -1.874434,-0.87937 -2.684374,-1.48104 -0.138847,0.13885 -0.231412,0.37026 -0.231412,0.53225 0,0.20827 0.04628,0.34712 0.161988,0.46282 1.226482,1.22648 2.152128,2.52239 3.124057,4.48939 0.323976,0 0.60167,-0.0463 0.902505,-0.23141 0.532247,-1.22649 2.105846,-3.47118 3.309186,-4.69766 z"
         style="stroke-width:1.49438131"
         id="path3138" />
    </g>
    <g
       aria-label="La Ferme du Haut Mont
Trémonzey"
       style="font-style:normal;font-variant:normal;font-weight:normal;font-stretch:normal;font-size:7.95477438px;line-height:1.25;font-family:Vollkorn;-inkscape-font-specification:Vollkorn;font-variant-ligatures:normal;font-variant-position:normal;font-variant-caps:normal;font-variant-numeric:normal;font-variant-alternates:normal;font-feature-settings:normal;text-indent:0;text-align:center;text-decoration:none;text-decoration-line:none;text-decoration-style:solid;text-decoration-color:#000000;letter-spacing:normal;word-spacing:normal;text-transform:none;writing-mode:lr-tb;direction:ltr;text-orientation:mixed;dominant-baseline:auto;baseline-shift:baseline;text-anchor:middle;white-space:normal;shape-padding:0;opacity:1;vector-effect:none;fill:#ff8040;fill-opacity:1;stroke:none;stroke-width:1.49438131;stroke-linecap:butt;stroke-linejoin:miter;stroke-miterlimit:4;stroke-dasharray:none;stroke-dashoffset:0;stroke-opacity:1;paint-order:normal"
       id="text4811">
      <path
         d="m 211.21355,213.418 h -0.0955 c -0.52502,0 -0.66025,-0.17501 -0.66025,-0.84321 v -2.7603 c 0,-0.6523 0.10342,-0.77162 0.53297,-0.81139 0.0477,-0.12728 0.0557,-0.31024 0.0557,-0.4932 -0.31819,0.0159 -0.83525,0.0239 -1.20117,0.0239 -0.42956,0 -0.77957,-0.008 -1.19322,-0.0239 0,0.15114 0.0159,0.36592 0.0477,0.4932 0.43751,0.0477 0.54092,0.16705 0.54092,0.79548 v 2.80008 c 0,0.68411 -0.11136,0.81138 -0.54092,0.8432 -0.0318,0.11932 -0.0477,0.30228 -0.0477,0.4932 0.37387,-0.008 1.71028,-0.0239 2.27507,-0.0239 0.63638,0 1.43981,0.008 1.8455,0.0159 0.0398,-0.45342 0.12728,-0.95457 0.2466,-1.32049 -0.11932,-0.11137 -0.34205,-0.19091 -0.61252,-0.23069 -0.23069,0.74775 -0.50115,1.04208 -1.19321,1.04208 z"
         style="font-style:normal;font-variant:normal;font-weight:bold;font-stretch:normal;font-size:7.95477438px;font-family:Vollkorn;-inkscape-font-specification:'Vollkorn Bold';text-align:center;text-anchor:middle;fill:#ff8040;fill-opacity:1;stroke:none;stroke-width:1.49438131"
         id="path3085" />
      <path
         d="m 217.28677,213.21117 c -0.39774,-0.0159 -0.46138,-0.13523 -0.46138,-0.65229 v -0.68411 c 0,-0.73979 -0.12727,-1.09776 -0.35001,-1.32049 -0.19887,-0.19887 -0.55683,-0.36592 -1.1773,-0.36592 -0.51707,0 -1.14549,0.12728 -1.59891,0.32615 0.0716,0.3341 0.0716,0.6682 0.0477,0.95457 0.18296,0.0716 0.4057,0.0796 0.66821,0.0796 0.0398,-0.42956 0.19091,-0.89094 0.62842,-0.89094 0.1591,0 0.32615,0.0636 0.44547,0.19887 0.14319,0.16705 0.175,0.37387 0.175,0.8273 -0.9307,0.12727 -2.24324,0.37387 -2.24324,1.39208 0,0.57275 0.41365,0.89094 1.12958,0.89094 0.40569,0 0.71593,-0.10341 0.9307,-0.28637 0.14319,-0.11137 0.25456,-0.27047 0.33411,-0.46138 -0.0159,0.11137 -0.0318,0.22273 -0.0318,0.30228 0,0.25455 0.0716,0.38978 0.25455,0.46138 0.35796,-0.1591 0.79548,-0.2466 1.18526,-0.26251 0.0716,-0.15114 0.0875,-0.3341 0.0636,-0.50911 z m -1.62278,-0.89093 c 0,0.66025 -0.38182,0.97048 -0.70797,0.97048 -0.19887,0 -0.37387,-0.12727 -0.37387,-0.42956 0,-0.47728 0.43751,-0.63638 1.08184,-0.74775 z"
         style="font-style:normal;font-variant:normal;font-weight:bold;font-stretch:normal;font-size:7.95477438px;font-family:Vollkorn;-inkscape-font-specification:'Vollkorn Bold';text-align:center;text-anchor:middle;fill:#ff8040;fill-opacity:1;stroke:none;stroke-width:1.49438131"
         id="path3087" />
      <path
         d="m 221.7975,209.0031 c 0.89093,0 1.11367,0.43751 1.18526,0.97048 0.27046,0 0.45342,-0.0398 0.60456,-0.11932 -0.0875,-0.35797 -0.14318,-0.96253 -0.16705,-1.34436 -0.36592,0.0159 -0.98639,0.0239 -2.21938,0.0239 -0.46933,0 -1.35231,-0.008 -1.78187,-0.0239 0,0.20683 0.0159,0.36592 0.0557,0.4932 0.42956,0.0477 0.53297,0.15909 0.53297,0.79548 v 2.83985 c 0,0.64434 -0.11932,0.77161 -0.54092,0.80343 -0.0398,0.11932 -0.0477,0.27046 -0.0477,0.4932 0.29433,-0.0159 0.88298,-0.0239 1.36822,-0.0239 0.44547,0 1.01026,0.008 1.28868,0.0239 0,-0.17501 -0.008,-0.35797 -0.0557,-0.4932 -0.59661,-0.0398 -0.80343,-0.23069 -0.80343,-0.92275 v -0.83525 h 0.38183 c 0.55683,0 0.73184,0.13523 0.77161,0.62047 0.15114,0.0477 0.31024,0.0636 0.54093,0.0636 -0.0159,-0.25456 -0.0239,-0.56479 -0.0239,-0.93867 0,-0.34205 0.008,-0.64433 0.0239,-0.90684 -0.19887,0 -0.39774,0.0239 -0.55684,0.0796 -0.008,0.46137 -0.175,0.60456 -0.7557,0.60456 h -0.38183 v -2.20347 z"
         style="font-style:normal;font-variant:normal;font-weight:bold;font-stretch:normal;font-size:7.95477438px;font-family:Vollkorn;-inkscape-font-specification:'Vollkorn Bold';text-align:center;text-anchor:middle;fill:#ff8040;fill-opacity:1;stroke:none;stroke-width:1.49438131"
         id="path3089" />
      <path
         d="m 226.95232,213.00435 c -0.2466,0.23069 -0.63639,0.37387 -1.00231,0.37387 -0.68411,0 -0.99434,-0.44546 -1.08184,-1.05798 0.7557,-0.0398 1.64663,-0.0398 2.12392,-0.0398 0.0955,-0.0955 0.16705,-0.23069 0.19887,-0.38183 -0.0398,-0.9864 -0.52502,-1.70233 -1.6705,-1.70233 -1.13754,0 -1.86142,0.78753 -1.86142,1.9171 0,1.05004 0.5807,1.86938 1.93301,1.86938 0.6682,0 1.1614,-0.18296 1.56709,-0.56479 -0.008,-0.16705 -0.10341,-0.35001 -0.20682,-0.41365 z m -1.45573,-2.31484 c 0.38979,0 0.60457,0.41365 0.60457,1.12162 h -1.26481 c 0.0239,-0.77956 0.30228,-1.12162 0.66024,-1.12162 z"
         style="font-style:normal;font-variant:normal;font-weight:bold;font-stretch:normal;font-size:7.95477438px;font-family:Vollkorn;-inkscape-font-specification:'Vollkorn Bold';text-align:center;text-anchor:middle;fill:#ff8040;fill-opacity:1;stroke:none;stroke-width:1.49438131"
         id="path3091" />
      <path
         d="m 231.14187,210.44291 c -0.175,-0.13523 -0.35001,-0.19091 -0.57274,-0.19091 -0.4216,0 -0.77162,0.27841 -1.0023,0.64433 -0.0636,0.10342 -0.13523,0.31024 -0.19887,0.50116 0.0716,-0.31024 0.12727,-0.52502 0.12727,-0.76366 0,-0.25456 -0.0875,-0.38183 -0.23068,-0.43752 -0.2466,0.12728 -0.83526,0.25456 -1.41595,0.26251 -0.0796,0.13523 -0.0955,0.30228 -0.0955,0.46933 0.52501,0.0318 0.5807,0.19092 0.5807,0.64434 v 1.06594 c 0,0.64434 -0.11137,0.77161 -0.54093,0.80343 -0.0318,0.11932 -0.0477,0.27046 -0.0477,0.4932 0.29433,-0.0159 0.87503,-0.0239 1.36027,-0.0239 0.44547,0 0.96253,0.008 1.24094,0.0239 0,-0.17501 -0.008,-0.35797 -0.0557,-0.4932 -0.59661,-0.0398 -0.79548,-0.23069 -0.79548,-0.92275 v -0.38979 c 0,-0.51706 0.31819,-0.98639 0.56479,-0.98639 0.20683,0 0.32615,0.14319 0.34206,0.55684 0.20682,0 0.5091,-0.0239 0.67615,-0.0875 -0.0239,-0.34205 0.0159,-0.85116 0.0636,-1.16935 z"
         style="font-style:normal;font-variant:normal;font-weight:bold;font-stretch:normal;font-size:7.95477438px;font-family:Vollkorn;-inkscape-font-specification:'Vollkorn Bold';text-align:center;text-anchor:middle;fill:#ff8040;fill-opacity:1;stroke:none;stroke-width:1.49438131"
         id="path3093" />
      <path
         d="m 238.69505,213.44186 c -0.3341,-0.0239 -0.40569,-0.13523 -0.40569,-0.90684 v -0.93071 c 0,-0.98639 -0.49319,-1.35231 -1.26481,-1.35231 -0.46137,0 -0.82729,0.21478 -1.04207,0.45342 -0.0796,0.0875 -0.16705,0.21478 -0.2466,0.38978 -0.008,-0.0875 -0.0318,-0.16705 -0.0796,-0.25455 -0.19887,-0.42956 -0.61252,-0.63638 -1.11367,-0.63638 -0.48524,0 -0.87502,0.2466 -1.09776,0.50115 -0.0636,0.0636 -0.12727,0.16705 -0.23068,0.40569 0.0477,-0.23069 0.0716,-0.35796 0.0716,-0.49319 0,-0.2466 -0.10341,-0.38183 -0.23069,-0.42161 -0.27046,0.14319 -0.9148,0.26251 -1.40004,0.26251 -0.0796,0.15114 -0.0955,0.31024 -0.0955,0.46933 0.52502,0.0318 0.5807,0.17501 0.5807,0.70798 v 1.11367 c 0,0.53297 -0.0955,0.6682 -0.52501,0.69206 -0.0477,0.13523 -0.0636,0.30228 -0.0636,0.4932 0.23864,-0.0239 0.77161,-0.0239 1.11367,-0.0239 0.35001,0 0.89889,0 1.15344,0.0239 0,-0.19092 -0.0159,-0.35797 -0.0636,-0.4932 -0.36592,-0.0239 -0.46138,-0.15909 -0.46138,-0.72388 v -0.4932 c 0,-0.80343 0.35797,-1.27276 0.76366,-1.27276 0.37388,0 0.58865,0.19887 0.58865,0.82729 v 0.75571 c 0,0.76366 -0.10341,0.88298 -0.46933,0.90684 -0.0477,0.12728 -0.0636,0.30228 -0.0636,0.4932 0.28638,-0.0239 0.72389,-0.0239 1.11367,-0.0239 0.38979,0 0.83525,0 1.09776,0.0239 0,-0.19092 -0.0159,-0.37388 -0.0636,-0.4932 -0.36592,-0.0239 -0.46933,-0.175 -0.46933,-0.72388 v -0.47729 c 0,-0.8432 0.34206,-1.27276 0.78752,-1.27276 0.33411,0 0.55684,0.19091 0.55684,0.87502 v 0.73184 c 0,0.69207 -0.12728,0.84321 -0.46138,0.86707 -0.0398,0.14319 -0.0557,0.28637 -0.0557,0.4932 0.27842,-0.0159 0.76366,-0.0239 1.12958,-0.0239 0.37387,0 0.73979,0 1.01025,0.0239 0,-0.19092 -0.0159,-0.35001 -0.0636,-0.4932 z"
         style="font-style:normal;font-variant:normal;font-weight:bold;font-stretch:normal;font-size:7.95477438px;font-family:Vollkorn;-inkscape-font-specification:'Vollkorn Bold';text-align:center;text-anchor:middle;fill:#ff8040;fill-opacity:1;stroke:none;stroke-width:1.49438131"
         id="path3095" />
      <path
         d="m 242.44238,213.00435 c -0.2466,0.23069 -0.63639,0.37387 -1.00231,0.37387 -0.68411,0 -0.99434,-0.44546 -1.08185,-1.05798 0.75571,-0.0398 1.64664,-0.0398 2.12393,-0.0398 0.0955,-0.0955 0.16705,-0.23069 0.19887,-0.38183 -0.0398,-0.9864 -0.52502,-1.70233 -1.6705,-1.70233 -1.13754,0 -1.86142,0.78753 -1.86142,1.9171 0,1.05004 0.5807,1.86938 1.93301,1.86938 0.6682,0 1.1614,-0.18296 1.56709,-0.56479 -0.008,-0.16705 -0.10341,-0.35001 -0.20682,-0.41365 z m -1.45573,-2.31484 c 0.38979,0 0.60456,0.41365 0.60456,1.12162 h -1.2648 c 0.0239,-0.77956 0.30228,-1.12162 0.66024,-1.12162 z"
         style="font-style:normal;font-variant:normal;font-weight:bold;font-stretch:normal;font-size:7.95477438px;font-family:Vollkorn;-inkscape-font-specification:'Vollkorn Bold';text-align:center;text-anchor:middle;fill:#ff8040;fill-opacity:1;stroke:none;stroke-width:1.49438131"
         id="path3097" />
      <path
         d="m 249.21102,213.21117 c -0.4057,-0.008 -0.46933,-0.13523 -0.46933,-0.64433 v -3.93762 c 0,-0.23864 -0.0955,-0.36592 -0.23069,-0.4216 -0.23069,0.12728 -0.88298,0.26251 -1.43186,0.26251 -0.0716,0.13523 -0.0875,0.30228 -0.0875,0.46933 0.5091,0.0239 0.58865,0.19091 0.58865,0.55683 v 0.77957 c -0.19092,-0.0557 -0.36592,-0.0795 -0.57275,-0.0795 -1.31253,0 -2.18756,0.88298 -2.18756,2.10802 0,1.16935 0.65229,1.67846 1.56709,1.67846 0.48524,0 0.88298,-0.2466 1.05003,-0.43752 0.0875,-0.0795 0.19092,-0.19887 0.29433,-0.38978 -0.0318,0.13523 -0.0477,0.25455 -0.0477,0.37387 0,0.27842 0.0796,0.38183 0.25455,0.45343 0.35797,-0.1591 0.81139,-0.2466 1.20117,-0.26251 0.0716,-0.15114 0.0875,-0.3341 0.0716,-0.50911 z m -2.45007,0.11933 c -0.43752,0 -0.7398,-0.46138 -0.7398,-1.20118 0,-1.20912 0.57275,-1.45572 0.97049,-1.45572 0.25455,0 0.42955,0.10341 0.58865,0.27046 v 1.04208 c 0,0.98639 -0.4216,1.34436 -0.81934,1.34436 z"
         style="font-style:normal;font-variant:normal;font-weight:bold;font-stretch:normal;font-size:7.95477438px;font-family:Vollkorn;-inkscape-font-specification:'Vollkorn Bold';text-align:center;text-anchor:middle;fill:#ff8040;fill-opacity:1;stroke:none;stroke-width:1.49438131"
         id="path3099" />
      <path
         d="m 254.08195,213.21117 c -0.40569,-0.008 -0.46138,-0.13523 -0.46138,-0.64433 v -1.93301 c 0,-0.25456 -0.0875,-0.38183 -0.23068,-0.43752 -0.2466,0.11933 -0.80344,0.21478 -1.42391,0.22274 -0.0796,0.13523 -0.0875,0.30228 -0.0875,0.46933 0.50115,0.0239 0.5807,0.19091 0.5807,0.64434 v 0.48524 c 0,0.86707 -0.35797,1.26481 -0.77162,1.26481 -0.35001,0 -0.48524,-0.26251 -0.48524,-0.97844 v -1.6705 c 0,-0.25456 -0.0875,-0.38183 -0.23068,-0.43752 -0.2466,0.12728 -0.77162,0.25456 -1.35232,0.26251 -0.0716,0.13523 -0.0875,0.30228 -0.0875,0.46933 0.46138,0.0318 0.50911,0.19092 0.50911,0.64434 v 0.92275 c 0,1.08981 0.43751,1.46368 1.20912,1.46368 0.47729,0 0.83525,-0.15114 1.0739,-0.37387 0.11136,-0.10341 0.20682,-0.25455 0.27841,-0.42956 -0.0239,0.13523 -0.0398,0.27046 -0.0398,0.37387 0,0.27842 0.0796,0.38183 0.25455,0.45343 0.35797,-0.1591 0.80343,-0.2466 1.20117,-0.26251 0.0716,-0.15114 0.0875,-0.3341 0.0636,-0.50911 z"
         style="font-style:normal;font-variant:normal;font-weight:bold;font-stretch:normal;font-size:7.95477438px;font-family:Vollkorn;-inkscape-font-specification:'Vollkorn Bold';text-align:center;text-anchor:middle;fill:#ff8040;fill-opacity:1;stroke:none;stroke-width:1.49438131"
         id="path3101" />
      <path
         d="m 261.16568,212.63843 v -2.83985 c 0,-0.63639 0.0954,-0.75571 0.52501,-0.79548 0.0557,-0.15114 0.0636,-0.31024 0.0636,-0.4932 -0.31819,0.0159 -0.81139,0.0239 -1.17731,0.0239 -0.36592,0 -0.93866,-0.008 -1.21708,-0.0239 0,0.17501 0.0159,0.36592 0.0557,0.4932 0.43751,0.0477 0.53297,0.15909 0.53297,0.79548 v 1.0898 h -1.94097 v -1.0898 c 0,-0.63639 0.10341,-0.75571 0.53297,-0.79548 0.0557,-0.15114 0.0557,-0.31024 0.0557,-0.4932 -0.3182,0.0159 -0.80344,0.0239 -1.16936,0.0239 -0.36592,0 -0.94661,-0.008 -1.21708,-0.0239 0,0.17501 0.0159,0.36592 0.0557,0.4932 0.42955,0.0477 0.53297,0.15909 0.53297,0.79548 v 2.83985 c 0,0.64434 -0.10342,0.77161 -0.53297,0.80343 -0.0318,0.11932 -0.0557,0.32615 -0.0557,0.4932 0.32615,-0.0159 0.81934,-0.0239 1.25686,-0.0239 0.44546,0 0.85911,0.008 1.12958,0.0239 0,-0.17501 -0.0159,-0.38183 -0.0477,-0.4932 -0.42956,-0.0318 -0.54093,-0.15909 -0.54093,-0.80343 v -1.17731 c 0.50911,-0.0636 1.38413,-0.0716 1.94097,-0.0716 v 1.2489 c 0,0.64434 -0.10342,0.77161 -0.52502,0.80343 -0.0398,0.11932 -0.0636,0.32615 -0.0636,0.4932 0.32615,-0.0159 0.81935,-0.0239 1.26481,-0.0239 0.43752,0 0.85116,0.008 1.12958,0.0239 0,-0.17501 -0.0159,-0.38183 -0.0557,-0.4932 -0.42956,-0.0318 -0.53297,-0.15909 -0.53297,-0.80343 z"
         style="font-style:normal;font-variant:normal;font-weight:bold;font-stretch:normal;font-size:7.95477438px;font-family:Vollkorn;-inkscape-font-specification:'Vollkorn Bold';text-align:center;text-anchor:middle;fill:#ff8040;fill-opacity:1;stroke:none;stroke-width:1.49438131"
         id="path3103" />
      <path
         d="m 266.22728,213.21117 c -0.39774,-0.0159 -0.46138,-0.13523 -0.46138,-0.65229 v -0.68411 c 0,-0.73979 -0.12728,-1.09776 -0.35001,-1.32049 -0.19887,-0.19887 -0.55684,-0.36592 -1.17731,-0.36592 -0.51706,0 -1.14549,0.12728 -1.59891,0.32615 0.0716,0.3341 0.0716,0.6682 0.0477,0.95457 0.18296,0.0716 0.40569,0.0796 0.6682,0.0796 0.0398,-0.42956 0.19092,-0.89094 0.62843,-0.89094 0.15909,0 0.32614,0.0636 0.44547,0.19887 0.14318,0.16705 0.175,0.37387 0.175,0.8273 -0.93071,0.12727 -2.24324,0.37387 -2.24324,1.39208 0,0.57275 0.41364,0.89094 1.12957,0.89094 0.4057,0 0.71593,-0.10341 0.93071,-0.28637 0.14319,-0.11137 0.25455,-0.27047 0.3341,-0.46138 -0.0159,0.11137 -0.0318,0.22273 -0.0318,0.30228 0,0.25455 0.0716,0.38978 0.25456,0.46138 0.35796,-0.1591 0.79547,-0.2466 1.18526,-0.26251 0.0716,-0.15114 0.0875,-0.3341 0.0636,-0.50911 z m -1.62278,-0.89093 c 0,0.66025 -0.38183,0.97048 -0.70797,0.97048 -0.19887,0 -0.37388,-0.12727 -0.37388,-0.42956 0,-0.47728 0.43751,-0.63638 1.08185,-0.74775 z"
         style="font-style:normal;font-variant:normal;font-weight:bold;font-stretch:normal;font-size:7.95477438px;font-family:Vollkorn;-inkscape-font-specification:'Vollkorn Bold';text-align:center;text-anchor:middle;fill:#ff8040;fill-opacity:1;stroke:none;stroke-width:1.49438131"
         id="path3105" />
      <path
         d="m 271.06353,213.21117 c -0.40569,-0.008 -0.46138,-0.13523 -0.46138,-0.64433 v -1.93301 c 0,-0.25456 -0.0875,-0.38183 -0.23068,-0.43752 -0.2466,0.11933 -0.80344,0.21478 -1.42391,0.22274 -0.0795,0.13523 -0.0875,0.30228 -0.0875,0.46933 0.50115,0.0239 0.5807,0.19091 0.5807,0.64434 v 0.48524 c 0,0.86707 -0.35797,1.26481 -0.77162,1.26481 -0.35001,0 -0.48524,-0.26251 -0.48524,-0.97844 v -1.6705 c 0,-0.25456 -0.0875,-0.38183 -0.23069,-0.43752 -0.24659,0.12728 -0.77161,0.25456 -1.35231,0.26251 -0.0716,0.13523 -0.0875,0.30228 -0.0875,0.46933 0.46138,0.0318 0.50911,0.19092 0.50911,0.64434 v 0.92275 c 0,1.08981 0.43751,1.46368 1.20912,1.46368 0.47729,0 0.83525,-0.15114 1.0739,-0.37387 0.11136,-0.10341 0.20682,-0.25455 0.27841,-0.42956 -0.0239,0.13523 -0.0398,0.27046 -0.0398,0.37387 0,0.27842 0.0795,0.38183 0.25455,0.45343 0.35797,-0.1591 0.80343,-0.2466 1.20117,-0.26251 0.0716,-0.15114 0.0875,-0.3341 0.0636,-0.50911 z"
         style="font-style:normal;font-variant:normal;font-weight:bold;font-stretch:normal;font-size:7.95477438px;font-family:Vollkorn;-inkscape-font-specification:'Vollkorn Bold';text-align:center;text-anchor:middle;fill:#ff8040;fill-opacity:1;stroke:none;stroke-width:1.49438131"
         id="path3107" />
      <path
         d="m 273.07037,213.98279 c 0.41365,0 0.85116,-0.13523 1.05799,-0.31024 -0.008,-0.15909 -0.0557,-0.31024 -0.11933,-0.39774 -0.14318,0.0875 -0.31819,0.13523 -0.48524,0.13523 -0.28637,0 -0.41365,-0.175 -0.41365,-0.81934 v -1.60686 c 0.25456,-0.0795 0.54888,-0.11932 0.89889,-0.12728 0.0477,-0.15114 0.0795,-0.31024 0.0795,-0.50911 h -0.97844 v -0.87502 c 0,-0.35001 -0.0477,-0.42956 -0.19886,-0.4932 -0.22274,0.18296 -0.60457,0.34206 -0.96253,0.38979 v 0.97843 h -0.4932 c -0.0716,0.16706 -0.0875,0.31024 -0.0875,0.50116 0.25455,0.008 0.4216,0.0398 0.5807,0.10341 v 1.76596 c 0,0.9148 0.37387,1.26481 1.12162,1.26481 z"
         style="font-style:normal;font-variant:normal;font-weight:bold;font-stretch:normal;font-size:7.95477438px;font-family:Vollkorn;-inkscape-font-specification:'Vollkorn Bold';text-align:center;text-anchor:middle;fill:#ff8040;fill-opacity:1;stroke:none;stroke-width:1.49438131"
         id="path3109" />
      <path
         d="m 283.35689,213.43391 c -0.4057,-0.0477 -0.50911,-0.17501 -0.59661,-1.05003 l -0.25455,-2.50576 c -0.0636,-0.67615 0.0875,-0.87502 0.52501,-0.87502 0.0398,-0.13523 0.0557,-0.31819 0.0557,-0.4932 -0.23069,0.0159 -0.63639,0.0239 -0.86707,0.0239 -0.23069,0 -0.67616,-0.008 -0.9148,-0.0239 l -1.45573,3.86602 -1.68641,-3.86602 c -0.18296,0.0159 -0.63638,0.0239 -0.86707,0.0239 -0.23069,0 -0.68411,-0.008 -0.89093,-0.0239 0,0.18296 0.008,0.34206 0.0557,0.4932 0.44547,0 0.57274,0.175 0.5091,0.85116 l -0.20682,2.33075 c -0.0955,1.0023 -0.25455,1.22503 -0.6682,1.25685 -0.0398,0.15114 -0.0557,0.3341 -0.0557,0.4932 0.18296,-0.008 0.62047,-0.0239 0.91479,-0.0239 0.28638,0 0.66025,0.008 0.85912,0.0239 0,-0.1591 -0.008,-0.34206 -0.0477,-0.4932 -0.45342,-0.0398 -0.59661,-0.2466 -0.49319,-1.24094 l 0.21477,-2.13984 1.75801,3.92171 c 0.16705,0 0.35796,-0.0159 0.47729,-0.0636 l 1.55913,-3.87398 0.25455,2.43416 c 0.0796,0.77162 0.0318,0.90685 -0.46933,0.96253 -0.0318,0.15114 -0.0557,0.30228 -0.0557,0.4932 0.22273,-0.008 0.76366,-0.0239 1.10571,-0.0239 0.35001,0 1.06594,0.008 1.28868,0.0239 0,-0.18296 -0.008,-0.35001 -0.0477,-0.50115 z"
         style="font-style:normal;font-variant:normal;font-weight:bold;font-stretch:normal;font-size:7.95477438px;font-family:Vollkorn;-inkscape-font-specification:'Vollkorn Bold';text-align:center;text-anchor:middle;fill:#ff8040;fill-opacity:1;stroke:none;stroke-width:1.49438131"
         id="path3111" />
      <path
         d="m 285.69695,213.98279 c 1.24095,0 2.03643,-0.74775 2.03643,-1.92506 0,-1.0898 -0.68411,-1.86142 -1.99665,-1.86142 -1.15344,0 -2.02847,0.70798 -2.02847,1.93301 0,1.12958 0.70798,1.85347 1.98869,1.85347 z m 0.11137,-0.50911 c -0.57274,0 -0.89889,-0.65229 -0.89889,-1.583 0,-0.69206 0.23864,-1.20912 0.72389,-1.20912 0.47728,0 0.90684,0.54887 0.90684,1.55913 0,0.70798 -0.25455,1.23299 -0.73184,1.23299 z"
         style="font-style:normal;font-variant:normal;font-weight:bold;font-stretch:normal;font-size:7.95477438px;font-family:Vollkorn;-inkscape-font-specification:'Vollkorn Bold';text-align:center;text-anchor:middle;fill:#ff8040;fill-opacity:1;stroke:none;stroke-width:1.49438131"
         id="path3113" />
      <path
         d="m 292.90684,213.44186 c -0.28637,0 -0.39774,-0.15909 -0.39774,-0.69206 v -1.21708 c 0,-0.94662 -0.60456,-1.29663 -1.27276,-1.29663 -0.50115,0 -0.89094,0.23864 -1.11367,0.48524 -0.10341,0.11932 -0.1591,0.25455 -0.22274,0.38978 0.0557,-0.18296 0.0796,-0.35001 0.0796,-0.47728 0,-0.25456 -0.0875,-0.38183 -0.23069,-0.43752 -0.24659,0.12728 -0.83525,0.25456 -1.41595,0.26251 -0.0795,0.13523 -0.0954,0.30228 -0.0954,0.46933 0.52501,0.0318 0.5807,0.19092 0.5807,0.64434 v 1.17731 c 0,0.53297 -0.11137,0.69206 -0.52502,0.69206 -0.0477,0.11137 -0.0636,0.29433 -0.0636,0.4932 0.23865,-0.0159 0.81139,-0.0239 1.16935,-0.0239 0.35797,0 0.86707,0.008 1.09776,0.0239 0,-0.19887 -0.008,-0.34206 -0.0636,-0.4932 -0.31819,0 -0.45342,-0.15114 -0.45342,-0.69206 v -0.50911 c 0,-0.8273 0.36592,-1.27276 0.77162,-1.27276 0.38182,0 0.5966,0.22273 0.5966,0.89093 v 0.83525 c 0,0.57275 -0.15909,0.74775 -0.45342,0.74775 -0.0557,0.14319 -0.0636,0.30228 -0.0636,0.4932 0.2466,-0.0159 0.78753,-0.0239 1.14549,-0.0239 0.35001,0 0.76366,0.0159 0.99435,0.0239 0,-0.20683 -0.008,-0.35797 -0.0636,-0.4932 z"
         style="font-style:normal;font-variant:normal;font-weight:bold;font-stretch:normal;font-size:7.95477438px;font-family:Vollkorn;-inkscape-font-specification:'Vollkorn Bold';text-align:center;text-anchor:middle;fill:#ff8040;fill-opacity:1;stroke:none;stroke-width:1.49438131"
         id="path3115" />
      <path
         d="m 294.96154,213.98279 c 0.41365,0 0.85116,-0.13523 1.05798,-0.31024 -0.008,-0.15909 -0.0557,-0.31024 -0.11932,-0.39774 -0.14319,0.0875 -0.31819,0.13523 -0.48524,0.13523 -0.28637,0 -0.41365,-0.175 -0.41365,-0.81934 v -1.60686 c 0.25455,-0.0795 0.54888,-0.11932 0.89889,-0.12728 0.0477,-0.15114 0.0796,-0.31024 0.0796,-0.50911 h -0.97844 v -0.87502 c 0,-0.35001 -0.0477,-0.42956 -0.19887,-0.4932 -0.22273,0.18296 -0.60456,0.34206 -0.96253,0.38979 v 0.97843 h -0.49319 c -0.0716,0.16706 -0.0875,0.31024 -0.0875,0.50116 0.25455,0.008 0.4216,0.0398 0.58069,0.10341 v 1.76596 c 0,0.9148 0.37388,1.26481 1.12163,1.26481 z"
         style="font-style:normal;font-variant:normal;font-weight:bold;font-stretch:normal;font-size:7.95477438px;font-family:Vollkorn;-inkscape-font-specification:'Vollkorn Bold';text-align:center;text-anchor:middle;fill:#ff8040;fill-opacity:1;stroke:none;stroke-width:1.49438131"
         id="path3117" />
      <path
         d="m 236.90759,218.45337 c -0.43751,0.0239 -1.24094,0.0239 -2.04437,0.0239 -0.80344,0 -1.583,0 -2.02847,-0.0239 0,0.36592 -0.0477,0.8273 -0.12728,1.27276 0.0955,0.0557 0.26251,0.0716 0.38183,0.0716 0.11137,-0.5807 0.22273,-0.97049 0.99435,-0.97049 h 0.40569 v 4.01717 c 0,0.53297 -0.12728,0.6682 -0.63638,0.69206 -0.0318,0.0875 -0.0398,0.19887 -0.0398,0.34206 0.29432,-0.0159 0.70797,-0.0239 1.04207,-0.0239 0.3341,0 0.70002,0.008 1.04208,0.0239 0,-0.14319 -0.008,-0.25456 -0.0398,-0.34206 -0.51706,-0.0239 -0.62047,-0.15909 -0.62047,-0.69206 v -4.01717 h 0.4216 c 0.62048,0 0.88298,0.35001 0.89889,0.97049 0.1591,0.008 0.28637,-0.0159 0.39774,-0.0716 -0.0477,-0.5091 -0.0636,-0.89093 -0.0477,-1.27276 z"
         style="font-size:7.95477438px;text-align:center;text-anchor:middle;fill:#ff8040;fill-opacity:1;stroke:none;stroke-width:1.49438131"
         id="path3119" />
      <path
         d="m 239.48395,220.21138 c -0.41365,0 -0.73184,0.27841 -0.96253,0.64433 -0.0636,0.0955 -0.10341,0.23069 -0.16705,0.41365 0.0477,-0.23864 0.10341,-0.47729 0.10341,-0.77957 0,-0.23069 -0.0796,-0.31819 -0.17501,-0.35001 -0.24659,0.12728 -0.73979,0.2466 -1.06594,0.27046 -0.0557,0.0875 -0.0716,0.17501 -0.0716,0.29433 0.52502,0.0159 0.59661,0.19092 0.59661,0.56479 v 1.57505 c 0,0.53297 -0.12728,0.6682 -0.54888,0.69206 -0.0318,0.0875 -0.0398,0.19887 -0.0398,0.34206 0.20682,-0.0159 0.67615,-0.0239 1.05003,-0.0239 0.37387,0 0.7557,0.008 1.0023,0.0239 0,-0.14319 -0.008,-0.25456 -0.0398,-0.34206 -0.50115,-0.0239 -0.70797,-0.15909 -0.70797,-0.85116 v -0.76366 c 0,-0.62047 0.39774,-1.12958 0.67616,-1.12958 0.20682,0 0.36591,0.11137 0.38978,0.62048 0.175,0 0.35796,-0.0398 0.45342,-0.0716 0,-0.27841 0.0159,-0.67615 0.0557,-0.93866 -0.16705,-0.12728 -0.3341,-0.19091 -0.54887,-0.19091 z"
         style="font-size:7.95477438px;text-align:center;text-anchor:middle;fill:#ff8040;fill-opacity:1;stroke:none;stroke-width:1.49438131"
         id="path3121" />
      <path
         d="m 242.17999,219.63068 c 0.31024,-0.48524 0.70002,-1.05003 1.05003,-1.45573 -0.0557,-0.0239 -0.13523,-0.0477 -0.23069,-0.0557 -0.15909,-0.008 -0.35796,0.0159 -0.58865,0.0955 -0.10341,0.40569 -0.26251,0.8432 -0.51706,1.36822 0.0796,0.0398 0.19091,0.0557 0.28637,0.0477 z m 1.2489,3.38873 c -0.26251,0.30228 -0.62047,0.46138 -0.97048,0.46138 -0.83525,0 -1.10571,-0.67616 -1.15344,-1.38413 0.82729,-0.0398 1.89323,-0.0398 2.22733,-0.0398 0.0557,-0.0716 0.0955,-0.15909 0.11933,-0.27046 -0.0636,-0.90684 -0.45343,-1.64664 -1.48755,-1.64664 -1.01821,0 -1.64664,0.87503 -1.64664,1.89324 0,1.04207 0.55684,1.89323 1.68642,1.89323 0.5807,0 1.05003,-0.18296 1.41595,-0.66024 -0.0159,-0.0875 -0.10342,-0.19887 -0.19092,-0.2466 z m -1.3364,-2.4978 c 0.46138,0 0.73184,0.47729 0.73184,1.17731 h -1.52732 c 0.0477,-0.92276 0.42956,-1.17731 0.79548,-1.17731 z"
         style="font-size:7.95477438px;text-align:center;text-anchor:middle;fill:#ff8040;fill-opacity:1;stroke:none;stroke-width:1.49438131"
         id="path3123" />
      <path
         d="m 250.68849,223.53647 c -0.32614,-0.0239 -0.47728,-0.14319 -0.47728,-0.69206 v -1.36823 c 0,-0.97048 -0.52502,-1.29662 -1.12163,-1.29662 -0.55683,0 -0.96252,0.32614 -1.13753,0.57274 -0.0557,0.0716 -0.0955,0.14319 -0.13523,0.25455 0,-0.0716 -0.0159,-0.14318 -0.0318,-0.19887 -0.16705,-0.48524 -0.57274,-0.6682 -1.01821,-0.6682 -0.55683,0 -0.97048,0.32615 -1.13753,0.57275 -0.0239,0.0239 -0.0557,0.0875 -0.12728,0.25455 0.0239,-0.23864 0.0318,-0.37388 0.0318,-0.50911 0,-0.19887 -0.0796,-0.28637 -0.17501,-0.31819 -0.20682,0.11932 -0.7557,0.25455 -1.02616,0.27046 -0.0557,0.0875 -0.0716,0.17501 -0.0716,0.29433 0.52501,0.0159 0.5966,0.19092 0.5966,0.56479 v 1.57505 c 0,0.53297 -0.12727,0.6682 -0.54888,0.69206 -0.0318,0.0875 -0.0398,0.19887 -0.0398,0.34206 0.25455,-0.0159 0.6682,-0.0239 0.94662,-0.0239 0.27842,0 0.67615,0.008 0.94662,0.0239 0,-0.14319 -0.008,-0.2466 -0.0398,-0.34206 -0.4216,-0.0239 -0.55683,-0.15909 -0.55683,-0.69206 v -0.89094 c 0,-0.97048 0.47729,-1.32845 0.88298,-1.32845 0.42956,0 0.73184,0.22274 0.73184,0.97049 v 1.2489 c 0,0.53297 -0.12728,0.6682 -0.54888,0.69206 -0.0318,0.0875 -0.0398,0.19887 -0.0398,0.34206 0.28638,-0.0159 0.63639,-0.0239 0.94662,-0.0239 0.31024,0 0.67616,0.008 0.94662,0.0239 0,-0.14319 -0.008,-0.2466 -0.0398,-0.34206 -0.4057,-0.0239 -0.55684,-0.14319 -0.55684,-0.69206 v -0.85117 c 0,-0.97048 0.47729,-1.32844 0.88298,-1.32844 0.42956,0 0.73184,0.22273 0.73184,0.97048 v 1.20913 c 0,0.53297 -0.12727,0.6682 -0.54888,0.69206 -0.0318,0.0875 -0.0398,0.19887 -0.0398,0.34206 0.26251,-0.0159 0.62843,-0.0239 0.94662,-0.0239 0.31819,0 0.62842,0.008 0.86707,0.0239 0,-0.14319 -0.008,-0.2466 -0.0398,-0.34206 z"
         style="font-size:7.95477438px;text-align:center;text-anchor:middle;fill:#ff8040;fill-opacity:1;stroke:none;stroke-width:1.49438131"
         id="path3125" />
      <path
         d="m 253.12875,223.92625 c 1.07389,0 1.79777,-0.80343 1.79777,-1.89323 0,-1.12958 -0.6682,-1.89324 -1.79777,-1.89324 -1.05799,0 -1.79778,0.81139 -1.79778,1.89324 0,1.14549 0.70797,1.89323 1.79778,1.89323 z m 0.0636,-0.38182 c -0.64433,0 -1.05798,-0.60457 -1.05798,-1.67846 0,-0.79548 0.30228,-1.34436 0.9148,-1.34436 0.58865,0 1.08185,0.62047 1.08185,1.60687 0,0.83525 -0.30228,1.41595 -0.93867,1.41595 z"
         style="font-size:7.95477438px;text-align:center;text-anchor:middle;fill:#ff8040;fill-opacity:1;stroke:none;stroke-width:1.49438131"
         id="path3127" />
      <path
         d="m 259.6616,223.53647 c -0.31819,0 -0.46933,-0.14319 -0.46933,-0.69206 v -1.36823 c 0,-0.97048 -0.53297,-1.29662 -1.13753,-1.29662 -0.56479,0 -0.97844,0.32614 -1.15344,0.57274 -0.0636,0.0875 -0.0875,0.15114 -0.11932,0.20682 0.0477,-0.18296 0.0557,-0.34205 0.0557,-0.46933 0,-0.23069 -0.0796,-0.31819 -0.17501,-0.35001 -0.24659,0.12728 -0.73979,0.2466 -1.06594,0.27046 -0.0557,0.0875 -0.0716,0.17501 -0.0716,0.29433 0.52502,0.0159 0.59661,0.19092 0.59661,0.56479 v 1.57505 c 0,0.53297 -0.13523,0.69206 -0.54888,0.69206 -0.0318,0.0875 -0.0398,0.19887 -0.0398,0.34206 0.23068,-0.0159 0.62047,-0.0239 0.94661,-0.0239 0.32615,0 0.72389,0.0159 0.94662,0.0239 0,-0.14319 -0.008,-0.2466 -0.0398,-0.34206 -0.41365,0 -0.54888,-0.15909 -0.54888,-0.69206 v -0.85117 c 0,-0.97048 0.48524,-1.32844 0.89889,-1.32844 0.42956,0 0.73979,0.22273 0.73979,0.97048 v 1.20913 c 0,0.53297 -0.16705,0.69206 -0.54888,0.69206 -0.0318,0.0875 -0.0398,0.19887 -0.0398,0.34206 0.2466,-0.008 0.62047,-0.0239 0.94662,-0.0239 0.32614,0 0.63638,0.008 0.86707,0.0239 0,-0.14319 -0.008,-0.2466 -0.0398,-0.34206 z"
         style="font-size:7.95477438px;text-align:center;text-anchor:middle;fill:#ff8040;fill-opacity:1;stroke:none;stroke-width:1.49438131"
         id="path3129" />
      <path
         d="m 263.55671,222.66145 c -0.1591,-0.0398 -0.29433,-0.0477 -0.4216,-0.0477 -0.0557,0.76366 -0.21478,0.88298 -0.77957,0.88298 h -1.01026 c 0.56479,-0.74775 1.62278,-2.21143 2.14779,-2.96713 0,-0.11137 -0.0318,-0.25456 -0.10341,-0.34206 -0.31024,0.0159 -0.93866,0.0239 -1.408,0.0239 -0.48524,0 -1.12957,-0.008 -1.45572,-0.0239 0,0.40569 -0.0239,0.80343 -0.0557,1.15344 0.11932,0.0477 0.28637,0.0636 0.41364,0.0636 0.15115,-0.70002 0.31024,-0.8432 0.88298,-0.8432 h 0.73184 c -0.41364,0.63638 -1.57504,2.26711 -2.10006,2.99099 0,0.12728 0.0557,0.2466 0.12728,0.31819 0.28637,-0.008 0.71593,-0.0159 1.41595,-0.0159 0.69206,0 1.01821,0.008 1.4239,0.0159 0.12728,0 0.21478,-0.0636 0.25456,-0.15114 -0.0477,-0.28637 -0.0636,-0.79548 -0.0636,-1.05798 z"
         style="font-size:7.95477438px;text-align:center;text-anchor:middle;fill:#ff8040;fill-opacity:1;stroke:none;stroke-width:1.49438131"
         id="path3131" />
      <path
         d="m 267.21553,223.01941 c -0.26251,0.30228 -0.62047,0.46138 -0.97048,0.46138 -0.83525,0 -1.10571,-0.67616 -1.15344,-1.38413 0.82729,-0.0398 1.89323,-0.0398 2.22733,-0.0398 0.0557,-0.0716 0.0955,-0.15909 0.11933,-0.27046 -0.0636,-0.90684 -0.45343,-1.64664 -1.48755,-1.64664 -1.01821,0 -1.64664,0.87503 -1.64664,1.89324 0,1.04207 0.55684,1.89323 1.68642,1.89323 0.5807,0 1.05003,-0.18296 1.41595,-0.66024 -0.0159,-0.0875 -0.10342,-0.19887 -0.19092,-0.2466 z m -1.3364,-2.4978 c 0.46138,0 0.73184,0.47729 0.73184,1.17731 h -1.52732 c 0.0477,-0.92276 0.42956,-1.17731 0.79548,-1.17731 z"
         style="font-size:7.95477438px;text-align:center;text-anchor:middle;fill:#ff8040;fill-opacity:1;stroke:none;stroke-width:1.49438131"
         id="path3133" />
      <path
         d="m 271.07235,220.21138 c -0.29432,0 -0.54092,0 -0.78752,-0.0159 0,0.11932 0.0159,0.23068 0.0557,0.34205 0.46933,0.0875 0.62842,0.27046 0.35796,0.94662 l -0.54888,1.38413 -0.0716,0.18296 c -0.19887,-0.48524 -0.50911,-1.21708 -0.71593,-1.63868 -0.28637,-0.59661 -0.23069,-0.77957 0.34205,-0.87503 0.0398,-0.0955 0.0557,-0.20682 0.0557,-0.34205 -0.32615,0.008 -0.77957,0.0159 -1.05799,0.0159 -0.27842,0 -0.59661,-0.008 -0.89889,-0.0159 0,0.12727 0.0159,0.24659 0.0477,0.34205 0.27046,0.0557 0.40569,0.18296 0.77957,0.97844 0.26251,0.57274 0.71593,1.56709 1.08185,2.39439 -0.15114,0.35001 -0.28637,0.62047 -0.36592,0.73979 -0.20683,0.3341 -0.4932,0.46933 -0.80343,0.46933 -0.1591,0 -0.32615,-0.0159 -0.50911,-0.0477 -0.0318,0.13523 -0.0477,0.42161 -0.008,0.5807 0.10341,0.0795 0.27841,0.18296 0.5966,0.18296 0.48525,0 0.77957,-0.23864 1.38413,-1.68641 l 1.16936,-2.78417 c 0.25455,-0.60457 0.35001,-0.75571 0.64433,-0.8273 0.0477,-0.11137 0.0477,-0.23864 0.0477,-0.34205 -0.23864,0.0159 -0.50115,0.0159 -0.79548,0.0159 z"
         style="font-size:7.95477438px;text-align:center;text-anchor:middle;fill:#ff8040;fill-opacity:1;stroke:none;stroke-width:1.49438131"
         id="path3135" />
    </g>
    <g
       aria-label="↓"
       style="font-style:normal;font-variant:normal;font-weight:normal;font-stretch:normal;font-size:23.14116096px;line-height:1.25;font-family:Vollkorn;-inkscape-font-specification:Vollkorn;font-variant-ligatures:normal;font-variant-position:normal;font-variant-caps:normal;font-variant-numeric:normal;font-variant-alternates:normal;font-feature-settings:normal;text-indent:0;text-align:center;text-decoration:none;text-decoration-line:none;text-decoration-style:solid;text-decoration-color:#000000;letter-spacing:normal;word-spacing:normal;text-transform:none;writing-mode:lr-tb;direction:ltr;text-orientation:mixed;dominant-baseline:auto;baseline-shift:baseline;text-anchor:middle;white-space:normal;shape-padding:0;opacity:1;vector-effect:none;fill:#ff8040;fill-opacity:1;stroke:none;stroke-width:1.49438131;stroke-linecap:butt;stroke-linejoin:miter;stroke-miterlimit:4;stroke-dasharray:none;stroke-dashoffset:0;stroke-opacity:1;paint-order:normal"
       id="text4815">
      <path
         d="m 256.09848,243.89427 c -0.16199,-0.32398 -0.32397,-0.5091 -0.60167,-0.5091 -0.23141,0 -0.48596,0.1157 -0.7868,0.34711 -0.3934,0.30084 -0.94878,0.69424 -1.75873,1.08764 0,-4.39682 0.0694,-8.79364 0.23142,-13.19046 -0.43969,-0.25456 -1.13392,-0.37026 -1.66617,-0.37026 v 13.56072 c -0.85622,-0.34712 -1.87443,-0.87937 -2.68437,-1.48104 -0.13885,0.13885 -0.23141,0.37026 -0.23141,0.53225 0,0.20827 0.0463,0.34712 0.16198,0.46282 1.22649,1.22648 2.15213,2.52239 3.12406,4.48939 0.32398,0 0.60167,-0.0463 0.90251,-0.23141 0.53224,-1.22649 2.10584,-3.47118 3.30918,-4.69766 z"
         style="stroke-width:1.49438131"
         id="path3082" />
    </g>
    <g
       aria-label="Livraison"
       style="font-style:normal;font-variant:normal;font-weight:normal;font-stretch:normal;font-size:7.95477438px;line-height:1.25;font-family:Vollkorn;-inkscape-font-specification:Vollkorn;font-variant-ligatures:normal;font-variant-position:normal;font-variant-caps:normal;font-variant-numeric:normal;font-variant-alternates:normal;font-feature-settings:normal;text-indent:0;text-align:center;text-decoration:none;text-decoration-line:none;text-decoration-style:solid;text-decoration-color:#000000;letter-spacing:normal;word-spacing:normal;text-transform:none;writing-mode:lr-tb;direction:ltr;text-orientation:mixed;dominant-baseline:auto;baseline-shift:baseline;text-anchor:middle;white-space:normal;shape-padding:0;opacity:1;vector-effect:none;fill:#ff8040;fill-opacity:1;stroke:none;stroke-width:1.49438131;stroke-linecap:butt;stroke-linejoin:miter;stroke-miterlimit:4;stroke-dasharray:none;stroke-dashoffset:0;stroke-opacity:1;paint-order:normal"
       id="text4821">
      <path
         d="m 393.2803,225.40587 h -0.0477 c -0.5966,0 -0.71592,-0.15114 -0.71592,-0.73979 v -3.24555 c 0,-0.55683 0.12727,-0.69206 0.54887,-0.71593 0.0318,-0.0875 0.0398,-0.19887 0.0398,-0.34205 -0.31819,0.0159 -0.62047,0.0239 -0.96253,0.0239 -0.23069,0 -0.65229,-0.008 -0.96253,-0.0239 0,0.12727 0.008,0.25455 0.0398,0.34205 0.4216,0.0239 0.54888,0.1591 0.54888,0.69207 v 3.26941 c 0,0.62047 -0.13523,0.7557 -0.55684,0.77957 -0.0318,0.0875 -0.0398,0.19887 -0.0398,0.34205 0.39774,-0.0159 1.47163,-0.0239 2.06028,-0.0239 0.58866,0 1.233,0.008 1.54323,0.0159 0.0477,-0.36592 0.12728,-0.81934 0.2466,-1.18526 -0.0955,-0.0955 -0.19092,-0.14319 -0.35001,-0.19092 -0.26251,0.7398 -0.50911,1.0023 -1.39209,1.0023 z"
         style="font-size:7.95477438px;text-align:center;text-anchor:middle;fill:#ff8040;fill-opacity:1;stroke:none;stroke-width:1.49438131"
         id="path3063" />
      <path
         d="m 396.36315,221.15007 c 0.26251,0 0.47729,-0.21478 0.47729,-0.46138 0,-0.28637 -0.19092,-0.48524 -0.47729,-0.48524 -0.2466,0 -0.46933,0.19887 -0.46933,0.48524 0,0.25456 0.19887,0.46138 0.46933,0.46138 z m -0.88298,4.63763 c 0.26251,-0.0159 0.61252,-0.0239 0.9148,-0.0239 0.30228,0 0.62047,0.008 0.89889,0.0239 0,-0.0716 -0.008,-0.23068 -0.0398,-0.34205 -0.34206,0 -0.46934,-0.1591 -0.46934,-0.69207 v -2.38643 c 0,-0.19887 -0.0795,-0.28637 -0.175,-0.31819 -0.19091,0.13523 -0.8273,0.27046 -1.06594,0.27046 -0.0557,0.0875 -0.0716,0.17501 -0.0716,0.29433 0.54092,0 0.5966,0.19091 0.5966,0.56479 v 1.57504 c 0,0.53297 -0.12727,0.69207 -0.54887,0.69207 -0.0318,0.10341 -0.0398,0.23864 -0.0398,0.34205 z"
         style="font-size:7.95477438px;text-align:center;text-anchor:middle;fill:#ff8040;fill-opacity:1;stroke:none;stroke-width:1.49438131"
         id="path3065" />
      <path
         d="m 400.9195,222.12055 c -0.2466,0 -0.53297,-0.008 -0.7398,-0.0239 0,0.11137 0.0318,0.23069 0.0875,0.3341 0.40569,0.0318 0.53297,0.25455 0.2625,0.94662 l -0.63638,1.59095 c -0.26251,-0.69206 -0.69206,-1.70232 -0.82729,-1.99665 -0.19887,-0.42955 -0.14319,-0.5091 0.38978,-0.54888 0.0318,-0.0954 0.0557,-0.20682 0.0557,-0.32614 -0.25455,0.0159 -0.64433,0.0239 -0.97843,0.0239 -0.33411,0 -0.61252,-0.008 -0.83526,-0.0239 0,0.15114 0.008,0.20682 0.0477,0.34205 0.21478,0.0239 0.28637,0.0796 0.4932,0.50115 0.15909,0.34206 1.06594,2.37053 1.27276,2.89554 0.12728,0 0.27046,-0.0239 0.36592,-0.0716 l 1.0739,-2.45803 c 0.2625,-0.62842 0.37387,-0.81138 0.63638,-0.86707 0.0477,-0.0954 0.0716,-0.19887 0.0716,-0.34205 -0.19091,0.0159 -0.49319,0.0239 -0.73979,0.0239 z"
         style="font-size:7.95477438px;text-align:center;text-anchor:middle;fill:#ff8040;fill-opacity:1;stroke:none;stroke-width:1.49438131"
         id="path3067" />
      <path
         d="m 404.39847,222.12055 c -0.41365,0 -0.73184,0.27842 -0.96253,0.64434 -0.0636,0.0955 -0.10341,0.23069 -0.16705,0.41365 0.0477,-0.23865 0.10341,-0.47729 0.10341,-0.77957 0,-0.23069 -0.0795,-0.31819 -0.175,-0.35001 -0.2466,0.12728 -0.7398,0.2466 -1.06594,0.27046 -0.0557,0.0875 -0.0716,0.17501 -0.0716,0.29433 0.52502,0.0159 0.59661,0.19091 0.59661,0.56479 v 1.57504 c 0,0.53297 -0.12727,0.6682 -0.54888,0.69207 -0.0318,0.0875 -0.0398,0.19887 -0.0398,0.34205 0.20682,-0.0159 0.67616,-0.0239 1.05003,-0.0239 0.37387,0 0.7557,0.008 1.0023,0.0239 0,-0.14318 -0.008,-0.25455 -0.0398,-0.34205 -0.50115,-0.0239 -0.70798,-0.1591 -0.70798,-0.85116 v -0.76366 c 0,-0.62047 0.39774,-1.12958 0.67616,-1.12958 0.20682,0 0.36592,0.11137 0.38978,0.62047 0.17501,0 0.35797,-0.0398 0.45342,-0.0716 0,-0.27842 0.0159,-0.67615 0.0557,-0.93866 -0.16705,-0.12728 -0.3341,-0.19092 -0.54888,-0.19092 z"
         style="font-size:7.95477438px;text-align:center;text-anchor:middle;fill:#ff8040;fill-opacity:1;stroke:none;stroke-width:1.49438131"
         id="path3069" />
      <path
         d="m 408.26387,224.60244 v -0.87502 c 0,-0.70798 -0.0636,-1.10572 -0.3341,-1.37618 -0.17501,-0.175 -0.45343,-0.30228 -0.84321,-0.30228 -0.40569,0 -0.92275,0.13523 -1.35231,0.35796 0.0477,0.23865 0.0636,0.60457 0.0398,0.86708 0.0795,0.0398 0.29433,0.0557 0.41365,0.0557 0.0159,-0.3341 0.16705,-0.92276 0.70002,-0.92276 0.19887,0 0.36592,0.0795 0.4932,0.23865 0.13523,0.16705 0.16705,0.3341 0.16705,0.98639 -0.65229,0.0955 -2.03642,0.31024 -2.03642,1.34436 0,0.52501 0.35796,0.8432 1.02616,0.8432 0.38978,0 0.66025,-0.11136 0.84321,-0.27046 0.12727,-0.11137 0.22273,-0.25455 0.27841,-0.38978 -0.008,0.0716 -0.008,0.15114 -0.008,0.20682 0,0.30228 0.0716,0.4216 0.19091,0.46933 0.2466,-0.13523 0.60457,-0.23069 0.86707,-0.2466 0.0398,-0.11136 0.0477,-0.25455 0.0477,-0.36591 -0.42955,-0.0239 -0.49319,-0.16706 -0.49319,-0.62048 z m -0.71593,-0.34205 c 0,0.79547 -0.43752,1.12162 -0.78753,1.12162 -0.25455,0 -0.47728,-0.175 -0.47728,-0.56479 0,-0.69206 0.72388,-0.78752 1.26481,-0.85911 z"
         style="font-size:7.95477438px;text-align:center;text-anchor:middle;fill:#ff8040;fill-opacity:1;stroke:none;stroke-width:1.49438131"
         id="path3071" />
      <path
         d="m 410.25293,221.15007 c 0.26251,0 0.47729,-0.21478 0.47729,-0.46138 0,-0.28637 -0.19091,-0.48524 -0.47729,-0.48524 -0.24659,0 -0.46933,0.19887 -0.46933,0.48524 0,0.25456 0.19887,0.46138 0.46933,0.46138 z m -0.88298,4.63763 c 0.26251,-0.0159 0.61252,-0.0239 0.9148,-0.0239 0.30228,0 0.62048,0.008 0.89889,0.0239 0,-0.0716 -0.008,-0.23068 -0.0398,-0.34205 -0.34206,0 -0.46933,-0.1591 -0.46933,-0.69207 v -2.38643 c 0,-0.19887 -0.0795,-0.28637 -0.17501,-0.31819 -0.19091,0.13523 -0.82729,0.27046 -1.06594,0.27046 -0.0557,0.0875 -0.0716,0.17501 -0.0716,0.29433 0.54092,0 0.59661,0.19091 0.59661,0.56479 v 1.57504 c 0,0.53297 -0.12728,0.69207 -0.54888,0.69207 -0.0318,0.10341 -0.0398,0.23864 -0.0398,0.34205 z"
         style="font-size:7.95477438px;text-align:center;text-anchor:middle;fill:#ff8040;fill-opacity:1;stroke:none;stroke-width:1.49438131"
         id="path3073" />
      <path
         d="m 414.30813,223.15467 c -0.0398,-0.27841 -0.0318,-0.57274 -0.0159,-0.82729 -0.32615,-0.18296 -0.6682,-0.27842 -1.14549,-0.27842 -0.53297,0 -1.32049,0.31819 -1.32049,0.99435 0,0.64433 0.31819,0.86707 1.17731,1.20912 0.70797,0.28637 0.85911,0.42161 0.85911,0.70002 0,0.29433 -0.25455,0.50911 -0.68411,0.50911 -0.54888,0 -0.89093,-0.32615 -0.97048,-0.99435 -0.1591,0 -0.32615,0.0239 -0.41365,0.0875 0.0239,0.25456 0.0239,0.7398 -0.008,0.9864 0.35796,0.19091 0.67615,0.29432 1.31253,0.29432 0.8273,0 1.45573,-0.44546 1.45573,-1.12162 0,-0.56479 -0.27047,-0.83525 -1.12958,-1.1614 -0.85116,-0.3341 -0.94662,-0.46933 -0.94662,-0.73979 0,-0.26251 0.21478,-0.43751 0.54093,-0.43751 0.51706,0 0.85911,0.43751 0.89093,0.87502 0.15114,0 0.29433,-0.0318 0.39774,-0.0955 z"
         style="font-size:7.95477438px;text-align:center;text-anchor:middle;fill:#ff8040;fill-opacity:1;stroke:none;stroke-width:1.49438131"
         id="path3075" />
      <path
         d="m 416.98677,225.83543 c 1.0739,0 1.79778,-0.80343 1.79778,-1.89323 0,-1.12958 -0.6682,-1.89324 -1.79778,-1.89324 -1.05798,0 -1.79777,0.81139 -1.79777,1.89324 0,1.14548 0.70797,1.89323 1.79777,1.89323 z m 0.0636,-0.38183 c -0.64433,0 -1.05798,-0.60456 -1.05798,-1.67845 0,-0.79548 0.30228,-1.34436 0.9148,-1.34436 0.58865,0 1.08185,0.62047 1.08185,1.60686 0,0.83525 -0.30228,1.41595 -0.93867,1.41595 z"
         style="font-size:7.95477438px;text-align:center;text-anchor:middle;fill:#ff8040;fill-opacity:1;stroke:none;stroke-width:1.49438131"
         id="path3077" />
      <path
         d="m 423.51963,225.44565 c -0.31819,0 -0.46933,-0.14319 -0.46933,-0.69207 v -1.36822 c 0,-0.97048 -0.53297,-1.29663 -1.13753,-1.29663 -0.56479,0 -0.97844,0.32615 -1.15344,0.57275 -0.0636,0.0875 -0.0875,0.15114 -0.11933,0.20682 0.0477,-0.18296 0.0557,-0.34205 0.0557,-0.46933 0,-0.23069 -0.0796,-0.31819 -0.17501,-0.35001 -0.2466,0.12728 -0.73979,0.2466 -1.06594,0.27046 -0.0557,0.0875 -0.0716,0.17501 -0.0716,0.29433 0.52502,0.0159 0.59661,0.19091 0.59661,0.56479 v 1.57504 c 0,0.53297 -0.13523,0.69207 -0.54888,0.69207 -0.0318,0.0875 -0.0398,0.19887 -0.0398,0.34205 0.23069,-0.0159 0.62048,-0.0239 0.94662,-0.0239 0.32615,0 0.72389,0.0159 0.94662,0.0239 0,-0.14318 -0.008,-0.24659 -0.0398,-0.34205 -0.41365,0 -0.54888,-0.1591 -0.54888,-0.69207 v -0.85116 c 0,-0.97048 0.48524,-1.32844 0.89889,-1.32844 0.42956,0 0.73979,0.22273 0.73979,0.97048 v 1.20912 c 0,0.53297 -0.16705,0.69207 -0.54888,0.69207 -0.0318,0.0875 -0.0398,0.19887 -0.0398,0.34205 0.2466,-0.008 0.62047,-0.0239 0.94662,-0.0239 0.32614,0 0.63638,0.008 0.86707,0.0239 0,-0.14318 -0.008,-0.24659 -0.0398,-0.34205 z"
         style="font-size:7.95477438px;text-align:center;text-anchor:middle;fill:#ff8040;fill-opacity:1;stroke:none;stroke-width:1.49438131"
         id="path3079" />
    </g>
    <g
       aria-label="↓"
       style="font-style:normal;font-variant:normal;font-weight:normal;font-stretch:normal;font-size:23.14116096px;line-height:1.25;font-family:Vollkorn;-inkscape-font-specification:Vollkorn;font-variant-ligatures:normal;font-variant-position:normal;font-variant-caps:normal;font-variant-numeric:normal;font-variant-alternates:normal;font-feature-settings:normal;text-indent:0;text-align:center;text-decoration:none;text-decoration-line:none;text-decoration-style:solid;text-decoration-color:#000000;letter-spacing:normal;word-spacing:normal;text-transform:none;writing-mode:lr-tb;direction:ltr;text-orientation:mixed;dominant-baseline:auto;baseline-shift:baseline;text-anchor:middle;white-space:normal;shape-padding:0;opacity:1;vector-effect:none;fill:#ff8040;fill-opacity:1;stroke:none;stroke-width:1.49438131;stroke-linecap:butt;stroke-linejoin:miter;stroke-miterlimit:4;stroke-dasharray:none;stroke-dashoffset:0;stroke-opacity:1;paint-order:normal"
       id="text4825">
      <path
         d="m 411.11521,243.89427 c -0.16199,-0.32398 -0.32398,-0.5091 -0.60167,-0.5091 -0.23142,0 -0.48597,0.1157 -0.7868,0.34711 -0.3934,0.30084 -0.94879,0.69424 -1.75873,1.08764 0,-4.39682 0.0694,-8.79364 0.23141,-13.19046 -0.43968,-0.25456 -1.13392,-0.37026 -1.66616,-0.37026 v 13.56072 c -0.85623,-0.34712 -1.87444,-0.87937 -2.68438,-1.48104 -0.13885,0.13885 -0.23141,0.37026 -0.23141,0.53225 0,0.20827 0.0463,0.34712 0.16199,0.46282 1.22648,1.22648 2.15213,2.52239 3.12405,4.48939 0.32398,0 0.60168,-0.0463 0.90251,-0.23141 0.53225,-1.22649 2.10585,-3.47118 3.30919,-4.69766 z"
         style="stroke-width:1.49438131"
         id="path3060" />
    </g>
    <path
       inkscape:connector-curvature="0"
       d="m 444.64437,272.20922 c 0.81586,-0.1439 1.62906,-0.29457 2.44092,-0.45067 9.40631,-1.80935 18.67936,-4.34713 28.16869,-5.64862 10.75462,-1.47491 21.72797,-1.34064 32.44293,0.39707"
       style="display:inline;opacity:1;fill:none;fill-opacity:1;stroke:#254117;stroke-width:0.59775132;stroke-linecap:round;stroke-linejoin:round;stroke-miterlimit:4;stroke-dasharray:none;stroke-dashoffset:0;stroke-opacity:1;paint-order:normal"
       id="path4729" />
  </g>
</svg>
