<?xml version="1.0" encoding="UTF-8" standalone="no"?>
<!-- Created with Inkscape (http://www.inkscape.org/) -->

<svg
   xmlns:dc="http://purl.org/dc/elements/1.1/"
   xmlns:cc="http://creativecommons.org/ns#"
   xmlns:rdf="http://www.w3.org/1999/02/22-rdf-syntax-ns#"
   xmlns:svg="http://www.w3.org/2000/svg"
   xmlns="http://www.w3.org/2000/svg"
   xmlns:sodipodi="http://sodipodi.sourceforge.net/DTD/sodipodi-0.dtd"
   xmlns:inkscape="http://www.inkscape.org/namespaces/inkscape"
   width="31.157"
   height="30.992125"
   viewBox="0 0 8.243623 8.1999998"
   version="1.1"
   id="svg962"
   inkscape:version="0.92.4 (5da689c313, 2019-01-14)"
   sodipodi:docname="sun.svg">
  <defs
     id="defs956" />
  <sodipodi:namedview
     id="base"
     pagecolor="#ffffff"
     bordercolor="#666666"
     borderopacity="1.0"
     inkscape:pageopacity="0.0"
     inkscape:pageshadow="2"
     inkscape:zoom="10.105769"
     inkscape:cx="35.034348"
     inkscape:cy="29.962001"
     inkscape:document-units="mm"
     inkscape:current-layer="layer1"
     showgrid="false"
     inkscape:window-width="1920"
     inkscape:window-height="1171"
     inkscape:window-x="1920"
     inkscape:window-y="0"
     inkscape:window-maximized="1"
     inkscape:snap-bbox="true"
     inkscape:bbox-nodes="true"
     inkscape:snap-page="true"
     showguides="true"
     inkscape:guide-bbox="true"
     inkscape:snap-nodes="false"
     units="px" />
  <metadata
     id="metadata959">
    <rdf:RDF>
      <cc:Work
         rdf:about="">
        <dc:format>image/svg+xml</dc:format>
        <dc:type
           rdf:resource="http://purl.org/dc/dcmitype/StillImage" />
        <dc:title></dc:title>
      </cc:Work>
    </rdf:RDF>
  </metadata>
  <g
     inkscape:label="Calque 1"
     inkscape:groupmode="layer"
     id="layer1"
     transform="translate(0,-288.8)">
    <g
       aria-label="☼"
       transform="matrix(7.4041754,0,0,7.3998005,4123.7419,872.03993)"
       style="font-style:normal;font-variant:normal;font-weight:bold;font-stretch:normal;font-size:1.52511585px;line-height:1.25;font-family:Vollkorn;-inkscape-font-specification:'Vollkorn Bold';text-align:center;letter-spacing:50px;word-spacing:0px;text-anchor:middle;fill:#254117;fill-opacity:1;stroke:none"
       id="flowRoot2864">
      <path
         inkscape:connector-curvature="0"
         d="m -556.41767,-78.82132 h 0.0581 l 0.004,0.0045 v 0.261385 l -0.004,0.0045 h -0.0581 l -0.004,-0.0045 v -0.261385 z m 0.41926,0.120639 0.0425,0.04617 v 0.0022 l -0.18468,0.189894 -0.0454,-0.04691 z m -0.7633,0.01415 0.18841,0.18915 -0.0462,0.04766 h -0.002 q -0.14894,-0.148192 -0.18245,-0.18915 v -0.003 z m 0.37532,0.179469 q 0.16011,0 0.22862,0.168299 l 0.01,0.07149 q 0,0.140746 -0.14596,0.215214 -0.0536,0.01787 -0.0894,0.01787 -0.13479,0 -0.21,-0.125108 -0.0276,-0.04766 -0.0276,-0.116171 0,-0.134043 0.14074,-0.21149 0.0521,-0.02011 0.0938,-0.02011 z m -0.55777,0.204789 h 0.25245 l 0.004,0.0045 v 0.05957 l -0.004,0.0045 h -0.25245 l -0.004,-0.0045 v -0.05957 z m 0.84671,0 h 0.25766 l 0.005,0.0045 v 0.05957 l -0.005,0.0045 h -0.25766 l -0.004,-0.0045 v -0.05957 z m -0.0573,0.213724 h 0.002 q 0.0998,0.09681 0.18468,0.186917 v 0.0022 l -0.0454,0.04691 -0.18468,-0.188406 v -0.003 z m -0.48107,0.01266 h 0.002 l 0.0439,0.04468 v 0.0022 l -0.18394,0.18915 -0.0454,-0.04617 v -0.003 z m 0.21819,0.0983 h 0.0581 l 0.004,0.0045 v 0.261384 l -0.004,0.0045 h -0.0581 l -0.004,-0.0045 v -0.261384 z m -0.0313,-0.440854 q -0.0968,0.05287 -0.0968,0.144469 0,0.04691 0.0186,0.07968 0.0514,0.08489 0.14372,0.08489 0.0238,0 0.0603,-0.01266 0.0998,-0.04989 0.0998,-0.146703 l -0.007,-0.0484 q -0.0469,-0.114682 -0.15564,-0.114682 -0.029,0 -0.0633,0.0134 z"
         style="font-style:normal;font-variant:normal;font-weight:bold;font-stretch:normal;font-size:1.52511585px;line-height:1.25;font-family:Vollkorn;-inkscape-font-specification:'Vollkorn Bold';text-align:center;letter-spacing:0px;text-anchor:middle;fill:#254117;fill-opacity:1"
         id="path1522" />
    </g>
  </g>
</svg>
